<svg width="28" height="26" viewBox="0 0 28 26" fill="none" xmlns="http://www.w3.org/2000/svg">
<path d="M14.1889 0C13.4382 0 12.6875 0.3952 12.2992 1.1804L9.76227 6.3492C9.45681 6.9732 8.86141 7.4048 8.17282 7.5088L2.49324 8.3356C0.763997 8.5904 0.075406 10.7224 1.32315 11.9444L5.43399 15.9692C5.93101 16.458 6.15882 17.1548 6.03974 17.8412L5.07157 23.5196C4.83859 24.8872 5.92066 26 7.1477 26C7.47387 26 7.80522 25.922 8.1314 25.7504L13.2104 23.0672C13.5159 22.906 13.8524 22.8228 14.1889 22.8228C14.5255 22.8228 14.862 22.906 15.1674 23.0672L20.2464 25.7504C20.5674 25.922 20.904 26 21.2302 26C22.4572 26 23.5393 24.8872 23.3063 23.5196L22.3381 17.8412C22.219 17.1548 22.4468 16.4528 22.9439 15.9692L27.0547 11.9444C28.3076 10.7172 27.6138 8.5852 25.8846 8.3356L20.205 7.5036C19.5164 7.4048 18.9262 6.968 18.6156 6.344L16.0787 1.1752C15.6904 0.3952 14.9396 0 14.1889 0Z" fill="#FFC700"/>
</svg>
