<svg width="16" height="15" viewBox="0 0 16 15" fill="none" xmlns="http://www.w3.org/2000/svg">
<path d="M8.00136 1.2C8.01056 1.2 8.0167 1.203 8.01977 1.212L9.52312 4.194C9.88516 4.908 10.5816 5.403 11.3885 5.52L14.7634 6C14.7695 6.006 14.7757 6.021 14.7665 6.036L12.3304 8.358C11.7475 8.913 11.4806 9.717 11.6186 10.5L12.1954 13.788C12.1923 13.794 12.1831 13.803 12.1678 13.803C12.1647 13.803 12.1617 13.803 12.1586 13.803L9.14882 12.255C8.79599 12.072 8.39714 11.976 7.99522 11.976C7.59637 11.976 7.19752 12.072 6.84163 12.255L3.82878 13.8C3.82264 13.8 3.8073 13.788 3.8073 13.773L4.38103 10.497C4.5191 9.711 4.25217 8.91 3.66924 8.355L1.22705 6.024C1.22705 6.018 1.23012 6 1.24853 5.994L4.61421 5.517C5.42111 5.403 6.11756 4.908 6.47959 4.191L7.98909 1.2C7.98602 1.203 7.99215 1.2 8.00136 1.2ZM8.00136 0C7.55649 0 7.11162 0.228 6.88151 0.681L5.37816 3.663C5.19714 4.023 4.84431 4.272 4.43626 4.332L1.07058 4.809C0.0458468 4.956 -0.362207 6.186 0.377199 6.891L2.81325 9.213C3.10778 9.495 3.24278 9.897 3.17221 10.293L2.59848 13.569C2.46042 14.358 3.10165 15 3.82878 15C4.02207 15 4.21843 14.955 4.41171 14.856L7.42149 13.308C7.60251 13.215 7.80193 13.167 8.00136 13.167C8.20078 13.167 8.40021 13.215 8.58122 13.308L11.591 14.856C11.7812 14.955 11.9806 15 12.1739 15C12.9011 15 13.5423 14.358 13.4042 13.569L12.8305 10.293C12.7599 9.897 12.8949 9.492 13.1895 9.213L15.6255 6.891C16.368 6.183 15.9569 4.953 14.9321 4.809L11.5665 4.329C11.1584 4.272 10.8086 4.02 10.6246 3.66L9.1212 0.678C8.8911 0.228 8.44623 0 8.00136 0Z" fill="#FFC700"/>
</svg>
