<svg width="34" height="34" viewBox="0 0 34 34"  xmlns="http://www.w3.org/2000/svg">
<path d="M26.5321 15.2418H25.2329L23.4114 7.62089H26.7143C27.0363 7.62089 27.3452 7.48707 27.5729 7.24887C27.8006 7.01067 27.9286 6.6876 27.9286 6.35074V5.20761C27.9254 3.82749 27.3998 2.50487 26.4668 1.52898C25.5339 0.553088 24.2694 0.00335387 22.95 0H4.97857C3.65916 0.00335387 2.3947 0.553088 1.46173 1.52898C0.528763 2.50487 0.00320637 3.82749 0 5.20761V6.35074C0 6.6876 0.127933 7.01067 0.355656 7.24887C0.583379 7.48707 0.892237 7.62089 1.21429 7.62089H4.85714V12.7015H1.21429C0.892237 12.7015 0.583379 12.8353 0.355656 13.0735C0.127933 13.3117 0 13.6348 0 13.9716V27.9433C0 28.2801 0.127933 28.6032 0.355656 28.8414C0.583379 29.0796 0.892237 29.2134 1.21429 29.2134H3.70357C3.76153 30.3431 4.23137 31.4065 5.01634 32.1847C5.80132 32.9629 6.84169 33.3967 7.92321 33.3967C9.00474 33.3967 10.0451 32.9629 10.8301 32.1847C11.6151 31.4065 12.0849 30.3431 12.1429 29.2134H23.1929C23.3271 30.2761 23.8261 31.2516 24.5967 31.9582C25.3674 32.6648 26.3573 33.0544 27.3821 33.0544C28.407 33.0544 29.3969 32.6648 30.1676 31.9582C30.9382 31.2516 31.4372 30.2761 31.5714 29.2134H32.7857C33.1078 29.2134 33.4166 29.0796 33.6443 28.8414C33.8721 28.6032 34 28.2801 34 27.9433V23.0532C33.9968 20.9825 33.209 18.9976 31.8092 17.5334C30.4094 16.0692 28.5118 15.2451 26.5321 15.2418ZM4.97857 2.5403H22.95C23.6058 2.53952 24.2366 2.80304 24.7115 3.2761C25.1864 3.74917 25.4688 4.39542 25.5 5.08059H2.42857C2.4598 4.39542 2.74218 3.74917 3.21706 3.2761C3.69193 2.80304 4.32279 2.53952 4.97857 2.5403ZM20.91 7.62089L23.0714 16.5119L22.8043 17.8837L19.8657 14.0732L20.315 13.616C20.5437 13.3768 20.6721 13.0524 20.6721 12.7142C20.6721 12.3759 20.5437 12.0516 20.315 11.8124C20.0863 11.5732 19.7762 11.4388 19.4529 11.4388C19.1295 11.4388 18.8194 11.5732 18.5907 11.8124L16.1621 14.3527C16.0483 14.4708 15.958 14.6112 15.8963 14.766C15.8347 14.9208 15.803 15.0868 15.803 15.2545C15.803 15.4222 15.8347 15.5882 15.8963 15.7429C15.958 15.8977 16.0483 16.0382 16.1621 16.1563C16.275 16.2753 16.4093 16.3698 16.5573 16.4343C16.7053 16.4988 16.864 16.532 17.0243 16.532C17.1846 16.532 17.3433 16.4988 17.4913 16.4343C17.6392 16.3698 17.7735 16.2753 17.8864 16.1563L18.1414 15.8896L22.1486 21.1226L22.0636 21.5671H14.0979L13.5879 19.6873C13.4326 19.1368 13.1133 18.6525 12.6764 18.3052C12.2395 17.9579 11.708 17.7657 11.1593 17.7567H7.28571V7.62089H20.91ZM2.42857 15.2418H4.85714V17.7821H2.42857V15.2418ZM7.89286 30.4836C7.53261 30.4836 7.18046 30.3718 6.88093 30.1625C6.58139 29.9531 6.34794 29.6556 6.21008 29.3074C6.07222 28.9593 6.03615 28.5762 6.10643 28.2066C6.17671 27.8371 6.35018 27.4976 6.60491 27.2311C6.85964 26.9647 7.18419 26.7832 7.53751 26.7097C7.89084 26.6362 8.25706 26.6739 8.58989 26.8181C8.92271 26.9623 9.20718 27.2065 9.40732 27.5198C9.60746 27.8332 9.71429 28.2015 9.71429 28.5783C9.71429 29.0836 9.52239 29.5682 9.1808 29.9255C8.83922 30.2828 8.37593 30.4836 7.89286 30.4836ZM11.7179 26.6731C11.3743 25.906 10.8271 25.2583 10.1416 24.8071C9.45611 24.356 8.6611 24.1204 7.85124 24.1284C7.04137 24.1365 6.25078 24.3878 5.57357 24.8524C4.89636 25.3171 4.36107 25.9755 4.03143 26.7493C3.9061 26.7044 3.77522 26.6788 3.64286 26.6731H2.42857V20.3224H11.135C11.1614 20.323 11.187 20.3318 11.2086 20.3476C11.2302 20.3634 11.2468 20.3856 11.2564 20.4113L12.9564 26.6731H11.7179ZM27.3214 30.4836C26.9612 30.4836 26.609 30.3718 26.3095 30.1625C26.01 29.9531 25.7765 29.6556 25.6386 29.3074C25.5008 28.9593 25.4647 28.5762 25.535 28.2066C25.6053 27.8371 25.7788 27.4976 26.0335 27.2311C26.2882 26.9647 26.6128 26.7832 26.9661 26.7097C27.3194 26.6362 27.6856 26.6739 28.0185 26.8181C28.3513 26.9623 28.6357 27.2065 28.8359 27.5198C29.036 27.8332 29.1429 28.2015 29.1429 28.5783C29.1429 29.0836 28.951 29.5682 28.6094 29.9255C28.2678 30.2828 27.8045 30.4836 27.3214 30.4836ZM31.5714 26.6731H31.1464C30.8053 25.9133 30.2645 25.2708 29.5871 24.8208C28.9098 24.3707 28.1239 24.1317 27.3214 24.1317C26.519 24.1317 25.7331 24.3707 25.0557 24.8208C24.3784 25.2708 23.8375 25.9133 23.4964 26.6731H15.5186L14.9114 24.1328H23.0714C23.3555 24.1388 23.6326 24.0404 23.8545 23.8547C24.0763 23.6691 24.2289 23.4079 24.2857 23.1167L25.3057 17.7821H26.52C27.1828 17.7804 27.8394 17.9155 28.4522 18.1797C29.065 18.4438 29.6219 18.8318 30.0912 19.3214C30.5604 19.8111 30.9327 20.3927 31.1867 21.0331C31.4407 21.6734 31.5714 22.3599 31.5714 23.0532V26.6731Z"/>
</svg>
