<?xml version="1.0" encoding="UTF-8"?>
<svg width="700pt" height="700pt" version="1.1" viewBox="0 0 700 700" xmlns="http://www.w3.org/2000/svg" xmlns:xlink="http://www.w3.org/1999/xlink">
 <defs>
  <symbol id="u" overflow="visible">
   <path d="m8.3281-0.5c-0.42969 0.23047-0.875 0.39844-1.3438 0.5-0.46094 0.11328-0.94531 0.17188-1.4531 0.17188-1.5117 0-2.7109-0.42188-3.5938-1.2656-0.875-0.84375-1.3125-1.9883-1.3125-3.4375 0-1.4453 0.4375-2.5938 1.3125-3.4375 0.88281-0.84375 2.082-1.2656 3.5938-1.2656 0.50781 0 0.99219 0.058594 1.4531 0.17188 0.46875 0.11719 0.91406 0.28125 1.3438 0.5v1.875c-0.42969-0.28906-0.85547-0.50391-1.2812-0.64062-0.41797-0.13281-0.85938-0.20312-1.3281-0.20312-0.83594 0-1.4922 0.26562-1.9688 0.79688-0.48047 0.53125-0.71875 1.2656-0.71875 2.2031s0.23828 1.6797 0.71875 2.2188c0.47656 0.53125 1.1328 0.79688 1.9688 0.79688 0.46875 0 0.91016-0.066406 1.3281-0.20312 0.42578-0.14453 0.85156-0.36328 1.2812-0.65625z"/>
  </symbol>
  <symbol id="e" overflow="visible">
   <path d="m6.0938-4.9531c-0.1875-0.082031-0.375-0.14453-0.5625-0.1875-0.1875-0.039063-0.375-0.0625-0.5625-0.0625-0.5625 0-0.99609 0.17969-1.2969 0.53125-0.30469 0.35547-0.45312 0.86719-0.45312 1.5312v3.1406h-2.1719v-6.7969h2.1719v1.1094c0.28125-0.44531 0.59766-0.76953 0.95312-0.96875 0.36328-0.20703 0.80078-0.3125 1.3125-0.3125 0.070313 0 0.14844 0.007812 0.23438 0.015625 0.082031 0 0.20703 0.011719 0.375 0.03125z"/>
  </symbol>
  <symbol id="b" overflow="visible">
   <path d="m7.8281-3.4219v0.625h-5.0781c0.050781 0.51172 0.23438 0.89844 0.54688 1.1562 0.32031 0.25 0.76562 0.375 1.3281 0.375 0.45703 0 0.92578-0.066406 1.4062-0.20312 0.47656-0.13281 0.97266-0.34375 1.4844-0.625v1.6875c-0.52344 0.1875-1.0391 0.32812-1.5469 0.42188-0.51172 0.10156-1.0273 0.15625-1.5469 0.15625-1.2305 0-2.1875-0.3125-2.875-0.9375-0.67969-0.625-1.0156-1.5-1.0156-2.625 0-1.1133 0.33203-1.9883 1-2.625 0.67578-0.63281 1.6016-0.95312 2.7812-0.95312 1.0625 0 1.9102 0.32422 2.5469 0.96875 0.64453 0.64844 0.96875 1.5078 0.96875 2.5781zm-2.2344-0.71875c0-0.41406-0.12109-0.75-0.35938-1-0.24219-0.25-0.55469-0.375-0.9375-0.375-0.42969 0-0.77344 0.12109-1.0312 0.35938-0.26172 0.23047-0.42188 0.57031-0.48438 1.0156z"/>
  </symbol>
  <symbol id="d" overflow="visible">
   <path d="m4.0938-3.0625c-0.46094 0-0.80469 0.078125-1.0312 0.23438-0.21875 0.15625-0.32812 0.38281-0.32812 0.67188 0 0.28125 0.085937 0.5 0.26562 0.65625 0.1875 0.15625 0.44141 0.23438 0.76562 0.23438 0.41406 0 0.75781-0.14453 1.0312-0.4375 0.28125-0.30078 0.42188-0.67188 0.42188-1.1094v-0.25zm3.3281-0.8125v3.875h-2.2031v-1.0156c-0.29297 0.41797-0.62109 0.71875-0.98438 0.90625-0.36719 0.1875-0.80859 0.28125-1.3281 0.28125-0.69922 0-1.2734-0.20312-1.7188-0.60938-0.4375-0.41406-0.65625-0.95312-0.65625-1.6094 0-0.78906 0.27344-1.375 0.82812-1.75 0.55078-0.375 1.4102-0.5625 2.5781-0.5625h1.2812v-0.17188c0-0.34375-0.13672-0.59375-0.40625-0.75-0.27344-0.15625-0.69531-0.23438-1.2656-0.23438-0.46875 0-0.90625 0.046875-1.3125 0.14062-0.39844 0.09375-0.76562 0.23047-1.1094 0.40625v-1.6562c0.46875-0.11328 0.9375-0.19531 1.4062-0.25 0.46875-0.0625 0.9375-0.09375 1.4062-0.09375 1.2266 0 2.1133 0.24609 2.6562 0.73438 0.55078 0.48047 0.82812 1.2656 0.82812 2.3594z"/>
  </symbol>
  <symbol id="c" overflow="visible">
   <path d="m3.4219-8.7344v1.9375h2.2344v1.5469h-2.2344v2.8906c0 0.3125 0.0625 0.52734 0.1875 0.64062 0.125 0.10547 0.375 0.15625 0.75 0.15625h1.1094v1.5625h-1.8594c-0.86719 0-1.4766-0.17578-1.8281-0.53125-0.35547-0.36328-0.53125-0.97266-0.53125-1.8281v-2.8906h-1.0938v-1.5469h1.0938v-1.9375z"/>
  </symbol>
  <symbol id="k" overflow="visible">
   <path d="m5.6719-5.8125v-3.6406h2.1875v9.4531h-2.1875v-0.98438c-0.30469 0.40625-0.63672 0.70312-1 0.89062-0.35547 0.17578-0.76562 0.26562-1.2344 0.26562-0.84375 0-1.5391-0.33203-2.0781-1-0.53125-0.66406-0.79688-1.5195-0.79688-2.5625 0-1.0508 0.26562-1.9102 0.79688-2.5781 0.53906-0.66406 1.2344-1 2.0781-1 0.46875 0 0.87891 0.09375 1.2344 0.28125 0.36328 0.1875 0.69531 0.48047 1 0.875zm-1.4375 4.4062c0.46875 0 0.82031-0.16406 1.0625-0.5 0.25-0.34375 0.375-0.83594 0.375-1.4844 0-0.64453-0.125-1.1406-0.375-1.4844-0.24219-0.34375-0.59375-0.51562-1.0625-0.51562-0.46094 0-0.8125 0.17188-1.0625 0.51562-0.24219 0.34375-0.35938 0.83984-0.35938 1.4844 0 0.64844 0.11719 1.1406 0.35938 1.4844 0.25 0.33594 0.60156 0.5 1.0625 0.5z"/>
  </symbol>
  <symbol id="j" overflow="visible">
   <path d="m4.6719-1.4062c0.45703 0 0.80469-0.16406 1.0469-0.5 0.25-0.34375 0.375-0.83594 0.375-1.4844 0-0.64453-0.125-1.1406-0.375-1.4844-0.24219-0.34375-0.58984-0.51562-1.0469-0.51562-0.46875 0-0.82812 0.17188-1.0781 0.51562s-0.375 0.83984-0.375 1.4844c0 0.64844 0.125 1.1406 0.375 1.4844 0.25 0.33594 0.60938 0.5 1.0781 0.5zm-1.4531-4.4062c0.30078-0.39453 0.63281-0.6875 1-0.875 0.36328-0.1875 0.78125-0.28125 1.25-0.28125 0.84375 0 1.5312 0.33594 2.0625 1 0.53906 0.66797 0.8125 1.5273 0.8125 2.5781 0 1.043-0.27344 1.8984-0.8125 2.5625-0.53125 0.66797-1.2188 1-2.0625 1-0.46875 0-0.88672-0.09375-1.25-0.28125-0.36719-0.1875-0.69922-0.47656-1-0.875v0.98438h-2.1719v-9.4531h2.1719z"/>
  </symbol>
  <symbol id="g" overflow="visible">
   <path d="m0.15625-6.7969h2.1719l1.8281 4.6094 1.5469-4.6094h2.1719l-2.8594 7.4375c-0.28125 0.75781-0.61719 1.2891-1 1.5938-0.38672 0.30078-0.89062 0.45312-1.5156 0.45312h-1.25v-1.4375h0.67188c0.375 0 0.64453-0.058594 0.8125-0.17188 0.16406-0.11719 0.29688-0.32422 0.39062-0.625l0.0625-0.1875z"/>
  </symbol>
  <symbol id="i" overflow="visible">
   <path d="m9.2969-0.67188c-0.58594 0.28125-1.1953 0.49609-1.8281 0.64062-0.625 0.13281-1.2734 0.20312-1.9375 0.20312-1.5117 0-2.7109-0.42188-3.5938-1.2656-0.875-0.84375-1.3125-1.9883-1.3125-3.4375 0-1.457 0.44531-2.6016 1.3438-3.4375 0.89453-0.84375 2.125-1.2656 3.6875-1.2656 0.60156 0 1.1797 0.058594 1.7344 0.17188 0.55078 0.11719 1.0703 0.28125 1.5625 0.5v1.875c-0.5-0.28125-1-0.48828-1.5-0.625-0.5-0.14453-1-0.21875-1.5-0.21875-0.9375 0-1.6641 0.26172-2.1719 0.78125-0.5 0.52344-0.75 1.2617-0.75 2.2188 0 0.96875 0.24219 1.7148 0.73438 2.2344 0.48828 0.52344 1.1797 0.78125 2.0781 0.78125 0.23828 0 0.46094-0.015625 0.67188-0.046875 0.20703-0.03125 0.39453-0.078125 0.5625-0.14062v-1.7656h-1.4375v-1.5625h3.6562z"/>
  </symbol>
  <symbol id="f" overflow="visible">
   <path d="m7.875-4.1406v4.1406h-2.1719v-3.1719c0-0.58203-0.015625-0.98438-0.046875-1.2031-0.023438-0.22656-0.070312-0.39453-0.14062-0.5-0.085937-0.14453-0.19922-0.25391-0.34375-0.32812-0.14844-0.082031-0.3125-0.125-0.5-0.125-0.44922 0-0.80469 0.17969-1.0625 0.53125-0.26172 0.34375-0.39062 0.82812-0.39062 1.4531v3.3438h-2.1719v-6.7969h2.1719v0.98438c0.32031-0.39453 0.66406-0.6875 1.0312-0.875 0.375-0.1875 0.78516-0.28125 1.2344-0.28125 0.78125 0 1.375 0.24609 1.7812 0.73438 0.40625 0.48047 0.60938 1.1797 0.60938 2.0938z"/>
  </symbol>
  <symbol id="t" overflow="visible">
   <path d="m1.1406-9.0625h2.3438v3.3125l3.3594-3.3125h2.7188l-4.3594 4.2969 4.8125 4.7656h-2.9219l-3.6094-3.5781v3.5781h-2.3438z"/>
  </symbol>
  <symbol id="h" overflow="visible">
   <path d="m7.875-4.1406v4.1406h-2.1719v-3.1562c0-0.59375-0.015625-1-0.046875-1.2188-0.023438-0.22656-0.070312-0.39453-0.14062-0.5-0.085937-0.14453-0.19922-0.25391-0.34375-0.32812-0.14844-0.082031-0.3125-0.125-0.5-0.125-0.44922 0-0.80469 0.17969-1.0625 0.53125-0.26172 0.34375-0.39062 0.82812-0.39062 1.4531v3.3438h-2.1719v-9.4531h2.1719v3.6406c0.32031-0.39453 0.66406-0.6875 1.0312-0.875 0.375-0.1875 0.78516-0.28125 1.2344-0.28125 0.78125 0 1.375 0.24609 1.7812 0.73438 0.40625 0.48047 0.60938 1.1797 0.60938 2.0938z"/>
  </symbol>
  <symbol id="a" overflow="visible">
   <path d="m4.2812-5.4062c-0.48047 0-0.85156 0.17188-1.1094 0.51562-0.25 0.34375-0.375 0.84375-0.375 1.5 0 0.64844 0.125 1.1484 0.375 1.5 0.25781 0.34375 0.62891 0.51562 1.1094 0.51562 0.46875 0 0.82812-0.17188 1.0781-0.51562 0.25781-0.35156 0.39062-0.85156 0.39062-1.5 0-0.65625-0.13281-1.1562-0.39062-1.5-0.25-0.34375-0.60938-0.51562-1.0781-0.51562zm0-1.5625c1.1641 0 2.0781 0.32031 2.7344 0.95312 0.66406 0.625 1 1.5 1 2.625 0 1.1172-0.33594 1.9922-1 2.625-0.65625 0.625-1.5703 0.9375-2.7344 0.9375-1.1797 0-2.1016-0.3125-2.7656-0.9375-0.65625-0.63281-0.98438-1.5078-0.98438-2.625 0-1.125 0.32812-2 0.98438-2.625 0.66406-0.63281 1.5859-0.95312 2.7656-0.95312z"/>
  </symbol>
  <symbol id="s" overflow="visible">
   <path d="m1.1406-9.0625h2.3438v7.2969h4.0938v1.7656h-6.4375z"/>
  </symbol>
  <symbol id="r" overflow="visible">
   <path d="m5.5156-9.4531v1.4375h-1.2031c-0.30469 0-0.51562 0.058594-0.64062 0.17188-0.125 0.10547-0.1875 0.29297-0.1875 0.5625v0.48438h1.8594v1.5469h-1.8594v5.25h-2.1719v-5.25h-1.0781v-1.5469h1.0781v-0.48438c0-0.73828 0.20703-1.2852 0.625-1.6406 0.41406-0.35156 1.0547-0.53125 1.9219-0.53125z"/>
  </symbol>
  <symbol id="q" overflow="visible">
   <path d="m7.3438-5.6719c0.28125-0.41406 0.60938-0.73438 0.98438-0.95312 0.375-0.22656 0.78906-0.34375 1.25-0.34375 0.78125 0 1.375 0.24609 1.7812 0.73438 0.40625 0.48047 0.60938 1.1797 0.60938 2.0938v4.1406h-2.1719v-3.5469-0.15625-0.25c0-0.47656-0.074219-0.82812-0.21875-1.0469-0.13672-0.21875-0.35938-0.32812-0.67188-0.32812-0.41797 0-0.74219 0.17188-0.96875 0.51562-0.21875 0.33594-0.33594 0.82422-0.34375 1.4688v3.3438h-2.1875v-3.5469c0-0.75-0.070312-1.2344-0.20312-1.4531-0.125-0.21875-0.35156-0.32812-0.67188-0.32812-0.41797 0-0.74219 0.17188-0.96875 0.51562-0.23047 0.34375-0.34375 0.83594-0.34375 1.4688v3.3438h-2.1875v-6.7969h2.1875v0.98438c0.26953-0.375 0.57812-0.66016 0.92188-0.85938 0.34375-0.19531 0.72266-0.29688 1.1406-0.29688 0.46875 0 0.87891 0.11719 1.2344 0.34375 0.36328 0.23047 0.64062 0.54688 0.82812 0.95312z"/>
  </symbol>
  <symbol id="p" overflow="visible">
   <path d="m1.1406-9.0625h2.6094l3.2969 6.2188v-6.2188h2.2188v9.0625h-2.6094l-3.2969-6.2188v6.2188h-2.2188z"/>
  </symbol>
  <symbol id="o" overflow="visible">
   <path d="m0.96875-2.6406v-4.1562h2.1875v0.67188c0 0.375-0.007812 0.83984-0.015625 1.3906v1.1094c0 0.55469 0.015625 0.94922 0.046875 1.1875 0.03125 0.24219 0.078125 0.41797 0.14062 0.53125 0.09375 0.13672 0.21094 0.24609 0.35938 0.32812 0.14453 0.074219 0.30469 0.10938 0.48438 0.10938 0.45703 0 0.81641-0.17188 1.0781-0.51562 0.25781-0.35156 0.39062-0.83594 0.39062-1.4531v-3.3594h2.1719v6.7969h-2.1719v-0.98438c-0.33594 0.39844-0.68359 0.6875-1.0469 0.875-0.36719 0.1875-0.77344 0.28125-1.2188 0.28125-0.78125 0-1.3828-0.23828-1.7969-0.71875-0.40625-0.47656-0.60938-1.1758-0.60938-2.0938z"/>
  </symbol>
  <symbol id="n" overflow="visible">
   <path d="m1.1406-9.0625h3.875c1.1562 0 2.0391 0.25781 2.6562 0.76562 0.625 0.51172 0.9375 1.2422 0.9375 2.1875 0 0.94922-0.3125 1.6836-0.9375 2.2031-0.61719 0.51172-1.5 0.76562-2.6562 0.76562h-1.5312v3.1406h-2.3438zm2.3438 1.6875v2.5312h1.2812c0.45703 0 0.80469-0.10938 1.0469-0.32812 0.25-0.21875 0.375-0.53125 0.375-0.9375s-0.125-0.71875-0.375-0.9375c-0.24219-0.21875-0.58984-0.32812-1.0469-0.32812z"/>
  </symbol>
  <symbol id="m" overflow="visible">
   <path d="m1.0469-6.7969h2.1719v6.6719c0 0.91406-0.21875 1.6133-0.65625 2.0938-0.4375 0.47656-1.0742 0.71875-1.9062 0.71875h-1.0625v-1.4375h0.375c0.40625 0 0.6875-0.09375 0.84375-0.28125 0.15625-0.17969 0.23438-0.54297 0.23438-1.0938zm0-2.6562h2.1719v1.7812h-2.1719z"/>
  </symbol>
  <symbol id="l" overflow="visible">
   <path d="m6.5469-6.5938v1.7812c-0.30469-0.20703-0.60547-0.35938-0.90625-0.45312-0.29297-0.09375-0.60156-0.14062-0.92188-0.14062-0.60547 0-1.0781 0.17969-1.4219 0.53125-0.33594 0.35547-0.5 0.85156-0.5 1.4844 0 0.63672 0.16406 1.1328 0.5 1.4844 0.34375 0.35547 0.81641 0.53125 1.4219 0.53125 0.34375 0 0.66406-0.050781 0.96875-0.15625 0.3125-0.10156 0.59766-0.25391 0.85938-0.45312v1.7812c-0.34375 0.125-0.69531 0.21875-1.0469 0.28125-0.34375 0.0625-0.69531 0.09375-1.0469 0.09375-1.2305 0-2.1953-0.3125-2.8906-0.9375-0.6875-0.63281-1.0312-1.5078-1.0312-2.625 0-1.125 0.34375-2 1.0312-2.625 0.69531-0.63281 1.6602-0.95312 2.8906-0.95312 0.35156 0 0.70312 0.03125 1.0469 0.09375 0.35156 0.0625 0.70312 0.15625 1.0469 0.28125z"/>
  </symbol>
 </defs>
 <g>
  <path d="m505.74 0.17969c30.801 2.375 53.844 29.27 51.469 60.07-2.375 30.797-29.27 53.84-60.07 51.465s-53.844-29.27-51.469-60.07c2.375-30.797 29.27-53.84 60.07-51.465"/>
  <path d="m486.45 559.74c1.3477 0.17187 2.6914 0.25781 4.0156 0.25781 15.398 0.003906 28.77-11.434 30.789-27.105v-0.003906c1.7617-13.637 2.5391-26.984 2.5391-39.926-0.23437-63.422-18.383-116.83-33.875-151.06-4.7188-0.40625-9.207-2.1641-12.961-5.0547-0.48047-0.37109-0.96094-0.75-1.418-1.1562-9.9961-8.8359-18.137-18.012-24.773-27.219-24.191-33.566-28.246-67.578-28.102-87.316 0.050782-16.293 2.4453-30.656 5.4453-42.352 3.4102-13.309 7.6133-23.156 10.082-28.285l0.14453-0.30469c4.3633-8.5742 12.859-13.785 22.266-13.785 3.8906 0 7.7891 0.94141 11.273 2.7188 1.8789 0.95703 3.5625 2.1406 5.0781 3.4727 8.3438 7.3125 11.055 19.617 5.8047 29.953l-0.16797 0.36719c-0.24219 0.51563-0.61328 1.3438-1.0781 2.4492-0.91797 2.1992-2.293 5.7539-3.6641 10.262-2.4922 8.1328-5.457 20.891-5.4414 35.531 0.15234 15.699 3.2383 29.785 9.4492 42.742 2.918-30.18 10.414-60.203 15.43-83.461 7.6055-24.602-1.1602-54.402-22.281-60.094-10.625-2.8633-23.75-1.5156-35.852 5.1367-9.1328 4.168-22.391 11.422-37.488 23.457-27.078 21.551-59.812 58.543-84.645 119.18-2.9375 7.1719-1.3711 15.055 3.3672 20.547l-58.621 163.44 18.723 6.7148 58.699-163.67c6.3555-1.2344 12-5.5039 14.641-11.941 12.723-30.984 27.309-54.344 41.57-71.988-5.4023 27.082-5.9023 53.082-2.4805 88.293 3.2539 18.637 10.891 29.617 20.414 36.059 0.57031 5.7695 1.0859 13.531 1.0781 22.789 0.011719 18.625-2.0859 43.148-9.6797 69.281-7.6055 26.164-20.559 53.863-42.527 79.973-11.059 13.129-9.375 32.738 3.7539 43.797 13.129 11.062 32.738 9.3789 43.801-3.75 24.055-28.562 39.805-58.891 49.875-87.68 1.3047 10.633 2.0352 21.66 1.9883 32.945 0 10.445-0.63281 21.125-2.0273 31.973-2.1914 17.027 9.8281 32.613 26.855 34.809z"/>
  <path d="m473.08 184.21c1.4141-4.6367 2.8242-8.3047 3.8281-10.715 0.49609-1.2031 0.90234-2.0938 1.1523-2.6328 0.12109-0.26562 0.21094-0.44922 0.25781-0.53906 3.832-7.5469 2.3828-16.371-2.9609-22.309-1.5898-1.7656-3.5039-3.2891-5.7461-4.4297-9.7891-4.9922-21.77-1.0977-26.754 8.6953v-0.003906c-0.37891 0.83984-4.4258 8.7773-8.25 21.699-3.5508 11.996-6.9102 28.285-6.9688 47.223-0.1875 25.586 6.7461 56.488 27.863 85.316 6.4141 8.7539 14.117 17.316 23.344 25.477 0.14453 0.12891 0.29688 0.23828 0.44531 0.36328 2.4297 2.043 5.207 3.4062 8.1094 4.1055 1.5391 0.37109 3.1055 0.57422 4.6758 0.57422 5.4766 0 10.926-2.2461 14.859-6.6602 7.3125-8.2031 6.5859-20.777-1.6094-28.086-10.746-9.6797-18.543-19.484-24.211-29.223-10.438-17.938-13.527-35.641-13.688-51.871-0.015626-14.602 2.8125-27.711 5.6523-36.984z"/>
  <path d="m277.27 252.11 31.398-92.621c0.13281-0.24219 0.25781-0.48047 0.35156-0.75l3.6445-10.473 0.019532-0.0625 0.57812-1.6641c0.23047-0.65234 0.30469-1.3242 0.25-1.9727 0.67578-9.0742-8.9648-17.449-21.789-18.805-13.004-1.3789-24.336 4.9766-25.312 14.195-0.67578 6.3516 3.7539 12.406 10.824 16.008 0.039062 0.039062 0.078125 0.10156 0.11719 0.13672 2.2383 2 13.891 3.957 20.594 4.9453l-31.25 87.305-7.9492-2.8242 18.723-60.141c0.12109-0.23828 0.23047-0.47266 0.3125-0.72656l3.7188-11.625c0.78516-2.4258-0.62109-4.7383-3.1328-5.1641l-30.207-0.4375c-2.5117-0.42578-5.1719 1.1875-5.9492 3.6172 0 0 2.043 13.859 5.1758 15.945 2.2031 1.4648 13.418 1.5 19.859 1.3984l-17.805 54.051c-12.078-2.6836-24.543 3.9805-28.793 15.938l-27.641 77.785c0.46484 0.44922 0.95312 0.92188 1.4961 1.4219 3.8555 3.5977 9.6172 8.4375 17.098 13.266 0.57422 0.37109 1.1797 0.74219 1.7734 1.1094 3.1953 1.9922 6.668 3.9648 10.426 5.832 1.0352 0.51562 2.1055 1.0234 3.1836 1.5234 3.8359 1.7734 7.9336 3.4258 12.293 4.8828 1.2109 0.40625 2.4453 0.79297 3.6953 1.168 4.125 1.2266 8.4688 2.2617 13.016 3.0586 6.2539 1.0898 12.895 1.7227 19.914 1.7227 1.7617 0 3.5547-0.050781 5.3672-0.13281l28.426-79.992c4.4297-12.469-1.707-26.102-13.738-31.191l32.969-90.402c5.7852 3.5234 16 9.4609 19 9.3594 4.2617-0.14453 15.555-11.117 15.555-11.117 0.94922-2.5273-0.37109-5.3477-2.9492-6.3164l-27.75-15.699c-2.5703-0.96875-5.4258 0.29688-6.3633 2.8281l-4.5312 12.09c-0.097656 0.26172-0.15625 0.53125-0.21094 0.79688l-36.32 94.609z"/>
  <path d="m252.53 377.88c-4.582-0.86719-8.9648-1.9492-13.137-3.2109-1.1172-0.33984-2.2305-0.68359-3.3203-1.0469-4.4023-1.4688-8.5625-3.1172-12.469-4.8867-0.95312-0.43359-1.8789-0.87891-2.8047-1.3242-3.8047-1.832-7.3555-3.7656-10.637-5.7266-8.9336-5.3477-15.926-10.918-20.789-15.297l-45.332 127.57c-4.5977 12.938 2.1641 27.16 15.105 31.754l17.691 6.2852c0.050781-0.43359 0.0625-0.85938 0.125-1.2969 3.3281-22.18 24.008-37.469 46.191-34.141 6.6172 0.99219 12.602 3.5586 17.676 7.2148l36.855-103.71c-0.59766 0.007812-1.2031 0.039062-1.7969 0.039062-8.2891-0.019531-16.066-0.84766-23.359-2.2227z"/>
  <path d="m182.7 511.56c-0.12109 0.8125-0.17578 1.6211-0.24219 2.4336-1.4414 18.07 11.301 34.43 29.5 37.16 19.016 2.8516 36.742-10.254 39.594-29.27 1.9141-12.742-3.3633-24.883-12.762-32.379-4.6211-3.6875-10.23-6.2695-16.5-7.2109-19.016-2.8516-36.738 10.25-39.59 29.266z"/>
  <use x="142.597656" y="597.300781" xlink:href="#u"/>
  <use x="151.722656" y="597.300781" xlink:href="#e"/>
  <use x="157.855469" y="597.300781" xlink:href="#b"/>
  <use x="166.289062" y="597.300781" xlink:href="#d"/>
  <use x="174.679688" y="597.300781" xlink:href="#c"/>
  <use x="180.621094" y="597.300781" xlink:href="#b"/>
  <use x="189.054688" y="597.300781" xlink:href="#k"/>
  <use x="202.28125" y="597.300781" xlink:href="#j"/>
  <use x="211.183594" y="597.300781" xlink:href="#g"/>
  <use x="223.617188" y="597.300781" xlink:href="#i"/>
  <use x="233.820312" y="597.300781" xlink:href="#d"/>
  <use x="242.210938" y="597.300781" xlink:href="#f"/>
  <use x="255.390625" y="597.300781" xlink:href="#t"/>
  <use x="265.027344" y="597.300781" xlink:href="#h"/>
  <use x="273.878906" y="597.300781" xlink:href="#a"/>
  <use x="282.417969" y="597.300781" xlink:href="#a"/>
  <use x="290.960938" y="597.300781" xlink:href="#f"/>
  <use x="304.140625" y="597.300781" xlink:href="#s"/>
  <use x="312.0625" y="597.300781" xlink:href="#d"/>
  <use x="320.453125" y="597.300781" xlink:href="#g"/>
  <use x="142.597656" y="609.734375" xlink:href="#r"/>
  <use x="148.007812" y="609.734375" xlink:href="#e"/>
  <use x="154.140625" y="609.734375" xlink:href="#a"/>
  <use x="162.683594" y="609.734375" xlink:href="#q"/>
  <use x="179.964844" y="609.734375" xlink:href="#c"/>
  <use x="185.910156" y="609.734375" xlink:href="#h"/>
  <use x="194.761719" y="609.734375" xlink:href="#b"/>
  <use x="207.523438" y="609.734375" xlink:href="#p"/>
  <use x="217.925781" y="609.734375" xlink:href="#a"/>
  <use x="226.46875" y="609.734375" xlink:href="#o"/>
  <use x="235.320312" y="609.734375" xlink:href="#f"/>
  <use x="248.5" y="609.734375" xlink:href="#n"/>
  <use x="257.613281" y="609.734375" xlink:href="#e"/>
  <use x="263.746094" y="609.734375" xlink:href="#a"/>
  <use x="272.285156" y="609.734375" xlink:href="#m"/>
  <use x="276.546875" y="609.734375" xlink:href="#b"/>
  <use x="284.980469" y="609.734375" xlink:href="#l"/>
  <use x="292.351562" y="609.734375" xlink:href="#c"/>
 </g>
</svg>
