<svg width="17" height="21" viewBox="0 0 17 21" fill="none" xmlns="http://www.w3.org/2000/svg">
<path d="M15.6278 0.916504H1.87236C1.56834 0.916504 1.27678 1.01747 1.06181 1.19719C0.846843 1.37692 0.726074 1.62067 0.726074 1.87484V19.1248C0.72606 19.308 0.788855 19.4874 0.90702 19.6417C1.02518 19.796 1.19377 19.9187 1.3928 19.9953C1.59183 20.072 1.81297 20.0993 2.03001 20.0741C2.24706 20.0489 2.45092 19.9722 2.61744 19.8532L8.75006 15.5503L14.8139 19.8053C14.921 19.8941 15.048 19.9643 15.1877 20.012C15.3274 20.0597 15.4769 20.0839 15.6278 20.0832C15.7781 20.0864 15.9273 20.0602 16.0633 20.0065C16.2727 19.9346 16.4519 19.8125 16.5783 19.6556C16.7048 19.4987 16.7729 19.314 16.774 19.1248V1.87484C16.774 1.62067 16.6533 1.37692 16.4383 1.19719C16.2233 1.01747 15.9318 0.916504 15.6278 0.916504V0.916504ZM14.4815 17.074L9.48368 13.5665C9.27771 13.4231 9.01812 13.3445 8.75006 13.3445C8.482 13.3445 8.22241 13.4231 8.01644 13.5665L3.01864 17.074V2.83317H14.4815V17.074Z" fill="#DDDDDD"/>
</svg>
