<svg width="24" height="23" viewBox="0 0 24 23" fill="none" xmlns="http://www.w3.org/2000/svg">
<path d="M18.4222 13.7498C17.745 13.7542 17.0771 13.9057 16.4666 14.1936C15.8562 14.4815 15.3183 14.8986 14.8917 15.4148L9.0456 12.771C9.32047 11.945 9.32047 11.0545 9.0456 10.2285L14.8917 7.58476C15.5813 8.40147 16.5427 8.95285 17.6062 9.14158C18.6698 9.33031 19.767 9.14427 20.7044 8.61628C21.6418 8.08829 22.359 7.2523 22.7294 6.25585C23.0999 5.2594 23.0998 4.16654 22.7291 3.17016C22.3585 2.17377 21.6411 1.33791 20.7037 0.810089C19.7662 0.282268 18.6689 0.0964177 17.6054 0.285339C16.5419 0.474261 15.5806 1.02581 14.8911 1.84264C14.2016 2.65948 13.8283 3.68909 13.8371 4.74976C13.8405 5.01777 13.8674 5.285 13.9173 5.54851L7.86493 8.28226C7.21967 7.66304 6.40256 7.24447 5.51597 7.07899C4.62939 6.91352 3.71277 7.0085 2.88095 7.35204C2.04913 7.69557 1.3391 8.27238 0.839819 9.01021C0.340541 9.74803 0.0742187 10.614 0.0742188 11.4998C0.0742187 12.3855 0.340541 13.2515 0.839819 13.9893C1.3391 14.7271 2.04913 15.304 2.88095 15.6475C3.71277 15.991 4.62939 16.086 5.51597 15.9205C6.40256 15.7551 7.21967 15.3365 7.86493 14.7173L13.9173 17.451C13.8674 17.7145 13.8405 17.9818 13.8371 18.2498C13.8371 19.1398 14.106 20.0098 14.6098 20.7498C15.1136 21.4898 15.8297 22.0666 16.6675 22.4072C17.5054 22.7478 18.4273 22.8369 19.3167 22.6633C20.2061 22.4897 21.0231 22.0611 21.6644 21.4317C22.3056 20.8024 22.7423 20.0006 22.9192 19.1277C23.0962 18.2548 23.0054 17.35 22.6583 16.5277C22.3113 15.7054 21.7236 15.0026 20.9696 14.5081C20.2155 14.0137 19.3291 13.7498 18.4222 13.7498ZM18.4222 2.49976C18.8756 2.49976 19.3189 2.63172 19.6959 2.87896C20.0729 3.12619 20.3667 3.47759 20.5403 3.88872C20.7138 4.29986 20.7592 4.75226 20.6707 5.18872C20.5823 5.62517 20.3639 6.02608 20.0433 6.34075C19.7227 6.65542 19.3142 6.86971 18.8695 6.95653C18.4247 7.04335 17.9638 6.99879 17.5449 6.82849C17.126 6.65819 16.7679 6.36981 16.516 5.9998C16.2641 5.62978 16.1296 5.19477 16.1296 4.74976C16.1296 4.15303 16.3712 3.58073 16.8011 3.15877C17.2311 2.73682 17.8142 2.49976 18.4222 2.49976V2.49976ZM4.6668 13.7498C4.21337 13.7498 3.77013 13.6178 3.39312 13.3706C3.01611 13.1233 2.72226 12.7719 2.54875 12.3608C2.37523 11.9497 2.32983 11.4973 2.41828 11.0608C2.50674 10.6244 2.72509 10.2234 3.04571 9.90877C3.36633 9.5941 3.77483 9.37981 4.21954 9.293C4.66426 9.20618 5.12522 9.25074 5.54413 9.42103C5.96304 9.59133 6.32109 9.87972 6.573 10.2497C6.82491 10.6197 6.95937 11.0548 6.95937 11.4998C6.95937 12.0965 6.71783 12.6688 6.28789 13.0908C5.85795 13.5127 5.27483 13.7498 4.6668 13.7498ZM18.4222 20.4998C17.9688 20.4998 17.5255 20.3678 17.1485 20.1206C16.7715 19.8733 16.4777 19.5219 16.3041 19.1108C16.1306 18.6997 16.0852 18.2473 16.1737 17.8108C16.2621 17.3744 16.4805 16.9734 16.8011 16.6588C17.1217 16.3441 17.5302 16.1298 17.9749 16.043C18.4197 15.9562 18.8806 16.0007 19.2995 16.171C19.7184 16.3413 20.0765 16.6297 20.3284 16.9997C20.5803 17.3697 20.7148 17.8048 20.7148 18.2498C20.7148 18.8465 20.4732 19.4188 20.0433 19.8408C19.6134 20.2627 19.0302 20.4998 18.4222 20.4998Z" fill="#DDDDDD"/>
</svg>
