<svg width="17" height="18" viewBox="0 0 17 18" fill="none" xmlns="http://www.w3.org/2000/svg">
<path d="M8.66683 2.33366C4.98493 2.33366 2.00016 5.31843 2.00016 9.00033C2.00016 12.6822 4.98493 15.667 8.66683 15.667C12.3487 15.667 15.3335 12.6822 15.3335 9.00033C15.3335 5.31843 12.3487 2.33366 8.66683 2.33366ZM0.333496 9.00033C0.333496 4.39795 4.06446 0.666992 8.66683 0.666992C13.2692 0.666992 17.0002 4.39795 17.0002 9.00033C17.0002 13.6027 13.2692 17.3337 8.66683 17.3337C4.06446 17.3337 0.333496 13.6027 0.333496 9.00033ZM5.16091 5.4944C5.48634 5.16897 6.01398 5.16897 6.33942 5.4944L8.66683 7.82182L10.9942 5.4944C11.3197 5.16897 11.8473 5.16897 12.1728 5.4944C12.4982 5.81984 12.4982 6.34748 12.1728 6.67291L9.84534 9.00033L12.1728 11.3277C12.4982 11.6532 12.4982 12.1808 12.1728 12.5062C11.8473 12.8317 11.3197 12.8317 10.9942 12.5062L8.66683 10.1788L6.33942 12.5062C6.01398 12.8317 5.48634 12.8317 5.16091 12.5062C4.83547 12.1808 4.83547 11.6532 5.16091 11.3277L7.48832 9.00033L5.16091 6.67291C4.83547 6.34748 4.83547 5.81984 5.16091 5.4944Z" fill="#8F8F8F"/>
</svg>
