<svg width="29" height="26" viewBox="0 0 29 26" fill="none" xmlns="http://www.w3.org/2000/svg">
<path d="M0.75 3.25C0.75 1.73122 1.98122 0.5 3.5 0.5H25.5C27.0188 0.5 28.25 1.73122 28.25 3.25V18.375C28.25 19.8938 27.0188 21.125 25.5 21.125H19.1945L15.4723 24.8473C14.9353 25.3842 14.0647 25.3842 13.5277 24.8473L9.80546 21.125H3.5C1.98122 21.125 0.75 19.8938 0.75 18.375V3.25ZM25.5 3.25H3.5V18.375H10.375C10.7397 18.375 11.0894 18.5199 11.3473 18.7777L14.5 21.9305L17.6527 18.7777C17.9106 18.5199 18.2603 18.375 18.625 18.375H25.5V3.25Z" fill="white"/>
<path d="M16.5625 10.8125C16.5625 11.9516 15.6391 12.875 14.5 12.875C13.3609 12.875 12.4375 11.9516 12.4375 10.8125C12.4375 9.67341 13.3609 8.75 14.5 8.75C15.6391 8.75 16.5625 9.67341 16.5625 10.8125Z" fill="white"/>
<path d="M22.0625 10.8125C22.0625 11.9516 21.1391 12.875 20 12.875C18.8609 12.875 17.9375 11.9516 17.9375 10.8125C17.9375 9.67341 18.8609 8.75 20 8.75C21.1391 8.75 22.0625 9.67341 22.0625 10.8125Z" fill="white"/>
<path d="M11.0625 10.8125C11.0625 11.9516 10.1391 12.875 9 12.875C7.86091 12.875 6.9375 11.9516 6.9375 10.8125C6.9375 9.67341 7.86091 8.75 9 8.75C10.1391 8.75 11.0625 9.67341 11.0625 10.8125Z" fill="white"/>
</svg>
