<svg width="21" height="25" viewBox="0 0 21 25" fill="none" xmlns="http://www.w3.org/2000/svg">
<path d="M5.66683 1.62484C5.66683 0.957493 6.20782 0.416504 6.87516 0.416504H14.1252C14.7925 0.416504 15.3335 0.957493 15.3335 1.62484H17.7502C19.0849 1.62484 20.1668 2.70682 20.1668 4.0415V22.1665C20.1668 23.5012 19.0849 24.5832 17.7502 24.5832H3.25016C1.91548 24.5832 0.833496 23.5012 0.833496 22.1665V4.0415C0.833496 2.70682 1.91547 1.62484 3.25016 1.62484H5.66683ZM5.66683 4.0415H3.25016V22.1665H17.7502V4.0415H15.3335V5.24984C15.3335 5.91718 14.7925 6.45817 14.1252 6.45817H6.87516C6.20782 6.45817 5.66683 5.91718 5.66683 5.24984V4.0415ZM12.9168 2.83317H8.0835V4.0415H12.9168V2.83317Z" fill="white"/>
</svg>
