<svg width="23" height="23" viewBox="0 0 23 23" fill="none" xmlns="http://www.w3.org/2000/svg">
<path d="M21.873 1.12712C21.1405 0.427204 20.1664 0.0366211 19.1533 0.0366211C18.1401 0.0366211 17.166 0.427204 16.4335 1.12712L1.54389 16.0167C1.05314 16.5048 0.66401 17.0853 0.399011 17.7247C0.134012 18.3641 -0.00160097 19.0497 1.42606e-05 19.7418V21.5626C1.42606e-05 21.9439 0.151465 22.3095 0.421048 22.5791C0.690632 22.8487 1.05627 23.0001 1.43751 23.0001H3.25835C3.95079 23.002 4.63674 22.8665 5.27647 22.6015C5.9162 22.3365 6.49702 21.9472 6.98531 21.4562L21.873 6.56662C22.5933 5.84474 22.9978 4.86663 22.9978 3.84687C22.9978 2.82711 22.5933 1.849 21.873 1.12712ZM4.95076 19.4236C4.50072 19.8708 3.89275 20.1228 3.25835 20.1251H2.87501V19.7418C2.87698 19.1067 3.12901 18.498 3.57651 18.0475L14.6625 6.96433L16.0358 8.33762L4.95076 19.4236ZM19.8375 4.534L18.0684 6.30595L16.6942 4.9317L18.4671 3.16262C18.652 2.98589 18.898 2.88726 19.1537 2.88726C19.4095 2.88726 19.6555 2.98589 19.8404 3.16262C20.0211 3.34524 20.1223 3.59196 20.1217 3.8489C20.1212 4.10584 20.019 4.35213 19.8375 4.534Z" fill="white"/>
</svg>
