<svg width="21" height="34" viewBox="0 0 21 34" xmlns="http://www.w3.org/2000/svg">
<path d="M15.747 14.6051H14.8479V12.2101C14.8479 11.8926 14.7351 11.588 14.5344 11.3634C14.3337 11.1388 14.0614 11.0127 13.7775 11.0127H11.6368V8.6177H14.5375C15.1867 8.61455 15.8086 8.32463 16.2676 7.81104C16.7267 7.29746 16.9858 6.60179 16.9887 5.87548V5.37254C16.9858 4.64622 16.7267 3.95056 16.2676 3.43697C15.8086 2.92338 15.1867 2.63346 14.5375 2.63031H11.9472C11.298 2.63346 10.6762 2.92338 10.2171 3.43697C9.75803 3.95056 9.49888 4.64622 9.49607 5.37254V11.0127H8.4257V2.97758C8.42288 2.25127 8.16373 1.5556 7.70466 1.04201C7.24559 0.528427 6.62377 0.238503 5.97455 0.235352H3.38425C2.73504 0.238503 2.11321 0.528427 1.65414 1.04201C1.19507 1.5556 0.935922 2.25127 0.933105 2.97758V3.48052C0.935922 4.20683 1.19507 4.9025 1.65414 5.41609C2.11321 5.92967 2.73504 6.2196 3.38425 6.22275H6.28496V11.0127H4.14422C3.86034 11.0127 3.58808 11.1388 3.38735 11.3634C3.18662 11.588 3.07385 11.8926 3.07385 12.2101V30.9148C3.07666 31.6697 3.34596 32.3927 3.8231 32.9265C4.30024 33.4603 4.94656 33.7616 5.62133 33.7648H12.3004C12.9752 33.7616 13.6215 33.4603 14.0987 32.9265C14.5758 32.3927 14.8451 31.6697 14.8479 30.9148V28.9748H15.747C16.9271 28.9717 18.058 28.4458 18.8925 27.5123C19.7269 26.5788 20.1969 25.3135 20.1998 23.9933V19.5866C20.1969 18.2664 19.7269 17.0012 18.8925 16.0676C18.058 15.1341 16.9271 14.6083 15.747 14.6051ZM11.6368 5.37254C11.6368 5.28044 11.6695 5.19211 11.7277 5.12698C11.7859 5.06185 11.8649 5.02527 11.9472 5.02527H14.5375C14.6198 5.02527 14.6988 5.06185 14.757 5.12698C14.8152 5.19211 14.8479 5.28044 14.8479 5.37254V5.87548C14.8479 5.96758 14.8152 6.05591 14.757 6.12103C14.6988 6.18616 14.6198 6.22275 14.5375 6.22275H11.6368V5.37254ZM3.07385 3.48052V2.97758C3.07385 2.88548 3.10655 2.79715 3.16476 2.73202C3.22298 2.6669 3.30193 2.63031 3.38425 2.63031H5.97455C6.05687 2.63031 6.13583 2.6669 6.19404 2.73202C6.25225 2.79715 6.28496 2.88548 6.28496 2.97758V3.82779H3.38425C3.30193 3.82779 3.22298 3.7912 3.16476 3.72608C3.10655 3.66095 3.07385 3.57262 3.07385 3.48052ZM5.21459 13.4076H12.7072V14.6051H5.21459V13.4076ZM5.21459 17.0001H12.7072V26.5799H5.21459V17.0001ZM12.7072 30.9148C12.7072 31.0354 12.6643 31.1512 12.588 31.2365C12.5118 31.3219 12.4083 31.3698 12.3004 31.3698H5.62133C5.51345 31.3698 5.41 31.3219 5.33372 31.2365C5.25744 31.1512 5.21459 31.0354 5.21459 30.9148V28.9748H12.7072V30.9148ZM18.059 23.9933C18.059 24.333 17.9992 24.6693 17.883 24.9832C17.7668 25.297 17.5966 25.5821 17.3819 25.8223C17.1672 26.0625 16.9123 26.253 16.6318 26.383C16.3513 26.513 16.0506 26.5799 15.747 26.5799H14.8479V17.0001H15.747C16.3602 17.0001 16.9483 17.2726 17.3819 17.7576C17.8154 18.2427 18.059 18.9006 18.059 19.5866V23.9933Z"/>
</svg>
