<svg width="12" height="16" viewBox="0 0 12 16" fill="none" xmlns="http://www.w3.org/2000/svg">
<path d="M6 0.5C2.7 0.5 0 3.2 0 6.5C0 10.55 5.25 15.125 5.475 15.35C5.625 15.425 5.85 15.5 6 15.5C6.15 15.5 6.375 15.425 6.525 15.35C6.75 15.125 12 10.55 12 6.5C12 3.2 9.3 0.5 6 0.5ZM6 13.775C4.425 12.275 1.5 9.05 1.5 6.5C1.5 4.025 3.525 2 6 2C8.475 2 10.5 4.025 10.5 6.5C10.5 8.975 7.575 12.275 6 13.775ZM6 3.5C4.35 3.5 3 4.85 3 6.5C3 8.15 4.35 9.5 6 9.5C7.65 9.5 9 8.15 9 6.5C9 4.85 7.65 3.5 6 3.5ZM6 8C5.175 8 4.5 7.325 4.5 6.5C4.5 5.675 5.175 5 6 5C6.825 5 7.5 5.675 7.5 6.5C7.5 7.325 6.825 8 6 8Z" fill="#009DD6"/>
</svg>
