<svg width="23" height="23" viewBox="0 0 23 23" xmlns="http://www.w3.org/2000/svg">
<path d="M11.3345 14.261C12.1558 14.261 12.6811 14.659 12.6811 14.936C12.6811 15.2099 12.1558 15.6111 11.3345 15.6111C10.5132 15.6111 9.98791 15.2131 9.98791 14.936C9.98791 14.659 10.5132 14.261 11.3345 14.261ZM9.98791 2.48331L12.3182 3.4831L9.98791 4.48288V2.48331ZM12.0349 8.88321C11.7006 8.87047 11.3504 9.15703 11.3345 9.53275C11.3218 9.90528 11.6115 10.2173 11.9839 10.2301C16.9087 10.4211 20.7638 12.7805 20.7638 15.6079C20.7638 16.7223 19.8565 17.6297 18.7423 17.6297H13.356C12.2418 17.6297 11.3345 18.5372 11.3345 19.6516V20.9857C6.31741 20.7787 1.90518 18.3111 1.90518 15.6111C1.90518 13.2421 4.70342 11.1598 8.64132 10.472V14.9392C8.64132 16.0727 9.82555 16.9611 11.3345 16.9611C12.8434 16.9611 14.0277 16.0727 14.0277 14.9392C14.0277 13.8057 12.8434 12.9174 11.3345 12.9174C10.8379 12.9174 10.3827 13.0224 9.98791 13.188V5.94753L14.2951 4.1008C14.5434 3.99572 14.7026 3.75055 14.7026 3.47991C14.7026 3.20927 14.5434 2.96728 14.2951 2.86221L9.58043 0.843537C9.37351 0.7512 9.13475 0.773488 8.94374 0.900849C8.75274 1.02503 8.64132 1.23517 8.64132 1.46124V5.48903C8.64132 5.49859 8.64132 5.50814 8.64132 5.51769V9.08699C3.85344 9.84478 0.558594 12.4716 0.558594 15.6079C0.558594 19.6357 6.47977 22.3421 12.0094 22.3421C12.3818 22.3421 12.6843 22.0396 12.6843 21.6671V19.6452C12.6843 19.2727 12.9867 18.9702 13.3592 18.9702H18.7455C20.6015 18.9702 22.1136 17.4578 22.1136 15.6015C22.1104 11.994 17.7778 9.10609 12.0349 8.88321Z"/>
</svg>
