<svg width="20" height="25" viewBox="0 0 20 25" xmlns="http://www.w3.org/2000/svg">
<path d="M19.8824 9.87503C19.881 8.21659 19.457 6.58552 18.65 5.13389C17.8431 3.68227 16.6794 2.45737 15.2675 1.5734C13.8555 0.689431 12.2414 0.175188 10.5755 0.0786176C8.90959 -0.0179529 7.24622 0.306295 5.74046 1.02113C4.23471 1.73596 2.93561 2.81809 1.9643 4.16664C0.992987 5.51517 0.381095 7.0862 0.185676 8.73322C-0.00974298 10.3802 0.217676 12.0496 0.846728 13.5857C1.47578 15.1218 2.48598 16.4746 3.78313 17.5179C3.72616 17.6667 3.71028 17.828 3.73713 17.985C3.76398 18.142 3.8326 18.289 3.93586 18.4107C4.74239 19.3242 5.42499 20.3388 5.96623 21.4286C6.25953 22.0022 6.50298 22.5996 6.69393 23.2143H6.40645C6.16818 23.2143 5.93967 23.3084 5.77118 23.4758C5.6027 23.6433 5.50805 23.8704 5.50805 24.1072C5.50805 24.344 5.6027 24.5711 5.77118 24.7385C5.93967 24.906 6.16818 25 6.40645 25H13.5936C13.8319 25 14.0604 24.906 14.2289 24.7385C14.3974 24.5711 14.492 24.344 14.492 24.1072C14.492 23.8704 14.3974 23.6433 14.2289 23.4758C14.0604 23.3084 13.8319 23.2143 13.5936 23.2143H13.3061C13.4933 22.5982 13.7369 22.0005 14.0338 21.4286C14.5677 20.3688 15.2447 19.3865 16.0462 18.509C16.1608 18.3847 16.2377 18.2306 16.2679 18.0647C16.2981 17.8988 16.2804 17.7278 16.2169 17.5715C17.3699 16.6442 18.298 15.4709 18.9325 14.1386C19.5671 12.8062 19.8917 11.349 19.8824 9.87503ZM1.91447 9.87503C1.92172 8.48854 2.28981 7.12751 2.98297 5.92424C3.67613 4.72098 4.67076 3.71644 5.87017 3.00827C7.06958 2.30011 8.43296 1.91242 9.82775 1.88289C11.2225 1.85337 12.6013 2.18302 13.8299 2.83979C15.0586 3.49656 16.0954 4.4581 16.8395 5.63094C17.5835 6.80378 18.0096 8.148 18.0763 9.53293C18.1429 10.9178 17.8478 12.2963 17.2198 13.5344C16.5917 14.7725 15.652 15.8279 14.492 16.5982C14.2918 16.7307 14.0849 16.8529 13.8721 16.9643H6.12794C4.84756 16.2702 3.77994 15.2448 3.03818 13.9967C2.29642 12.7487 1.90813 11.3245 1.91447 9.87503ZM12.4347 20.5893C12.0036 21.4241 11.6691 22.3047 11.4375 23.2143H8.5626C8.3316 22.3016 7.99705 21.418 7.56538 20.5804C7.24313 19.9439 6.87377 19.3321 6.46035 18.75H13.5307C13.1177 19.3307 12.7512 19.9427 12.4347 20.5804V20.5893Z"/>
</svg>
