<svg width="18" height="16" viewBox="0 0 18 16" fill="none" xmlns="http://www.w3.org/2000/svg">
<path d="M0.666626 1.99967C0.666626 1.0792 1.41282 0.333008 2.33329 0.333008H15.6666C16.5871 0.333008 17.3333 1.0792 17.3333 1.99967V11.1663C17.3333 12.0868 16.5871 12.833 15.6666 12.833H11.8451L9.58922 15.0889C9.26378 15.4144 8.73614 15.4144 8.4107 15.0889L6.15478 12.833H2.33329C1.41282 12.833 0.666626 12.0868 0.666626 11.1663V1.99967ZM15.6666 1.99967H2.33329V11.1663H6.49996C6.72097 11.1663 6.93293 11.2541 7.08922 11.4104L8.99996 13.3212L10.9107 11.4104C11.067 11.2541 11.2789 11.1663 11.5 11.1663H15.6666V1.99967ZM3.99996 4.91634C3.99996 4.4561 4.37306 4.08301 4.83329 4.08301H13.1666C13.6269 4.08301 14 4.4561 14 4.91634C14 5.37658 13.6269 5.74967 13.1666 5.74967H4.83329C4.37306 5.74967 3.99996 5.37658 3.99996 4.91634ZM3.99996 8.24967C3.99996 7.78944 4.37306 7.41634 4.83329 7.41634H9.83329C10.2935 7.41634 10.6666 7.78944 10.6666 8.24967C10.6666 8.70991 10.2935 9.08301 9.83329 9.08301H4.83329C4.37306 9.08301 3.99996 8.70991 3.99996 8.24967Z" fill="#8F8F8F"/>
</svg>
