<svg width="331" height="426" viewBox="0 0 331 426" fill="none" xmlns="http://www.w3.org/2000/svg">
<g clip-path="url(#clip0_1633_13852)">
<path d="M165.466 33.4629V166.465" stroke="#DDDDDD" stroke-miterlimit="10"/>
<path d="M98.9619 51.2793L165.466 166.466" stroke="#DDDDDD" stroke-miterlimit="10"/>
<path d="M50.2793 99.9614L165.466 166.465" stroke="#DDDDDD" stroke-miterlimit="10"/>
<path d="M32.4629 166.465H165.465" stroke="#DDDDDD" stroke-miterlimit="10"/>
<path d="M50.2793 232.964L165.466 166.465" stroke="#DDDDDD" stroke-miterlimit="10"/>
<path d="M98.9619 281.646L165.466 166.465" stroke="#DDDDDD" stroke-miterlimit="10"/>
<path d="M165.466 299.463V166.465" stroke="#DDDDDD" stroke-miterlimit="10"/>
<path d="M231.965 281.646L165.466 166.465" stroke="#DDDDDD" stroke-miterlimit="10"/>
<path d="M280.647 232.964L165.466 166.465" stroke="#DDDDDD" stroke-miterlimit="10"/>
<path d="M298.463 166.465H165.466" stroke="#DDDDDD" stroke-miterlimit="10"/>
<path d="M280.647 99.9614L165.466 166.465" stroke="#DDDDDD" stroke-miterlimit="10"/>
<path d="M231.965 51.2793L165.466 166.466" stroke="#DDDDDD" stroke-miterlimit="10"/>
<path d="M140.94 35.7432L165.465 166.465" stroke="#DDDDDD" stroke-opacity="0.5" stroke-miterlimit="10"/>
<path d="M78.8623 65.5166L165.465 166.465" stroke="#DDDDDD" stroke-opacity="0.5" stroke-miterlimit="10"/>
<path d="M39.9912 122.341L165.465 166.465" stroke="#DDDDDD" stroke-opacity="0.5" stroke-miterlimit="10"/>
<path d="M34.7441 190.99L165.466 166.465" stroke="#DDDDDD" stroke-opacity="0.5" stroke-miterlimit="10"/>
<path d="M64.5169 253.063L165.466 166.465" stroke="#DDDDDD" stroke-opacity="0.5" stroke-miterlimit="10"/>
<path d="M121.341 291.934L165.466 166.465" stroke="#DDDDDD" stroke-opacity="0.5" stroke-miterlimit="10"/>
<path d="M189.99 297.182L165.466 166.465" stroke="#DDDDDD" stroke-opacity="0.5" stroke-miterlimit="10"/>
<path d="M252.063 267.409L165.466 166.465" stroke="#DDDDDD" stroke-opacity="0.5" stroke-miterlimit="10"/>
<path d="M290.934 210.584L165.466 166.465" stroke="#DDDDDD" stroke-opacity="0.5" stroke-miterlimit="10"/>
<path d="M296.183 141.941L165.466 166.465" stroke="#DDDDDD" stroke-opacity="0.5" stroke-miterlimit="10"/>
<path d="M266.408 79.8628L165.465 166.465" stroke="#DDDDDD" stroke-opacity="0.5" stroke-miterlimit="10"/>
<path d="M209.584 40.9919L165.465 166.465" stroke="#DDDDDD" stroke-opacity="0.5" stroke-miterlimit="10"/>
<path d="M118.579 42L165.466 166.464" stroke="#DDDDDD" stroke-opacity="0.5" stroke-miterlimit="10"/>
<path d="M62.626 82.1167L165.466 166.464" stroke="#DDDDDD" stroke-opacity="0.5" stroke-miterlimit="10"/>
<path d="M34.2305 144.836L165.466 166.465" stroke="#DDDDDD" stroke-opacity="0.5" stroke-miterlimit="10"/>
<path d="M41.002 213.351L165.466 166.465" stroke="#DDDDDD" stroke-opacity="0.5" stroke-miterlimit="10"/>
<path d="M81.1172 269.3L165.466 166.464" stroke="#DDDDDD" stroke-opacity="0.5" stroke-miterlimit="10"/>
<path d="M143.836 297.696L165.466 166.464" stroke="#DDDDDD" stroke-opacity="0.5" stroke-miterlimit="10"/>
<path d="M212.351 290.924L165.466 166.464" stroke="#DDDDDD" stroke-opacity="0.5" stroke-miterlimit="10"/>
<path d="M268.3 250.809L165.466 166.464" stroke="#DDDDDD" stroke-opacity="0.5" stroke-miterlimit="10"/>
<path d="M296.695 188.09L165.466 166.464" stroke="#DDDDDD" stroke-opacity="0.5" stroke-miterlimit="10"/>
<path d="M289.925 119.58L165.466 166.464" stroke="#DDDDDD" stroke-opacity="0.5" stroke-miterlimit="10"/>
<path d="M249.808 63.6259L165.466 166.464" stroke="#DDDDDD" stroke-opacity="0.5" stroke-miterlimit="10"/>
<path d="M187.09 35.2305L165.466 166.465" stroke="#DDDDDD" stroke-opacity="0.5" stroke-miterlimit="10"/>

<path d="M258.902 275.553H257.862V274.363H255.992V275.553H254.572L257.422 271.463H255.372L252.232 275.833V277.123H255.932V278.463H257.862V277.123H258.902V275.553Z" fill="#DDDDDD"/>
<path d="M270.886 258.013H270.416L270.506 256.993H273.326V255.463H268.866L268.516 259.553H270.416C271.486 259.553 271.776 259.833 271.776 260.263C271.776 260.733 271.326 261.003 270.656 261.003C269.986 261.003 269.286 260.803 268.716 260.423L268.006 261.913C268.716 262.363 269.746 262.603 270.716 262.603C272.826 262.603 273.766 261.463 273.766 260.213C273.766 258.973 272.956 258.013 270.886 258.013Z" fill="#DDDDDD"/>
<path d="M292.534 212.463V215.113H294.224V214.033H296.064L293.704 219.463H295.864L298.334 213.703V212.463H292.534Z" fill="#DDDDDD"/>
<path d="M55.3538 259.263L56.8038 257.703V256.463H51.7438V257.993H54.5038L53.2538 259.343V260.593H54.0838C54.8438 260.593 55.1538 260.853 55.1538 261.273C55.1538 261.743 54.7138 262.003 54.0438 262.003C53.3838 262.003 52.6638 261.803 52.1038 261.423L51.3838 262.913C52.1038 263.363 53.1338 263.603 54.1038 263.603C56.2138 263.603 57.1538 262.463 57.1538 261.273C57.1538 260.273 56.5338 259.513 55.3538 259.263ZM57.5092 256.463V257.993H58.8092V263.463H60.7892V256.463H57.5092Z" fill="#DDDDDD"/>
<path d="M73.4114 275.263L74.8614 273.703V272.463H69.8014V273.993H72.5614L71.3114 275.343V276.593H72.1414C72.9014 276.593 73.2114 276.853 73.2114 277.273C73.2114 277.743 72.7714 278.003 72.1014 278.003C71.4414 278.003 70.7214 277.803 70.1614 277.423L69.4414 278.913C70.1614 279.363 71.1914 279.603 72.1614 279.603C74.2714 279.603 75.2114 278.463 75.2114 277.273C75.2114 276.273 74.5914 275.513 73.4114 275.263ZM78.508 277.893L79.828 276.673C80.828 275.753 81.018 275.133 81.018 274.453C81.018 273.153 79.908 272.323 78.298 272.323C76.918 272.323 75.928 272.903 75.398 273.783L76.868 274.603C77.148 274.153 77.608 273.923 78.118 273.923C78.718 273.923 79.018 274.193 79.018 274.643C79.018 274.933 78.938 275.253 78.378 275.773L75.758 278.223V279.463H81.208V277.893H78.508Z" fill="#DDDDDD"/>
</g>
<path d="M115.879 300.263L117.329 298.703V297.463H112.269V298.993H115.029L113.779 300.343V301.593H114.609C115.369 301.593 115.679 301.853 115.679 302.273C115.679 302.743 115.239 303.003 114.569 303.003C113.909 303.003 113.189 302.803 112.629 302.423L111.909 303.913C112.629 304.363 113.659 304.603 114.629 304.603C116.739 304.603 117.679 303.463 117.679 302.273C117.679 301.273 117.059 300.513 115.879 300.263ZM124.915 301.553H123.875V300.363H122.005V301.553H120.585L123.435 297.463H121.385L118.245 301.833V303.123H121.945V304.463H123.875V303.123H124.915V301.553Z" fill="#DDDDDD"/>
<path d="M141.392 306.263L142.842 304.703V303.463H137.782V304.993H140.542L139.292 306.343V307.593H140.122C140.882 307.593 141.192 307.853 141.192 308.273C141.192 308.743 140.752 309.003 140.082 309.003C139.422 309.003 138.702 308.803 138.142 308.423L137.422 309.913C138.142 310.363 139.172 310.603 140.142 310.603C142.252 310.603 143.192 309.463 143.192 308.273C143.192 307.273 142.572 306.513 141.392 306.263ZM146.35 306.013H145.88L145.97 304.993H148.79V303.463H144.33L143.98 307.553H145.88C146.95 307.553 147.24 307.833 147.24 308.263C147.24 308.733 146.79 309.003 146.12 309.003C145.45 309.003 144.75 308.803 144.18 308.423L143.47 309.913C144.18 310.363 145.21 310.603 146.18 310.603C148.29 310.603 149.23 309.463 149.23 308.213C149.23 306.973 148.42 306.013 146.35 306.013Z" fill="#DDDDDD"/>
<path d="M304.498 191.773C304.968 191.443 305.248 190.963 305.248 190.363C305.248 189.123 304.108 188.323 302.458 188.323C300.808 188.323 299.668 189.123 299.668 190.363C299.668 190.963 299.948 191.443 300.418 191.773C299.788 192.133 299.418 192.683 299.418 193.403C299.418 194.743 300.648 195.603 302.458 195.603C304.268 195.603 305.498 194.743 305.498 193.403C305.498 192.683 305.128 192.133 304.498 191.773ZM302.458 189.713C302.948 189.713 303.298 189.983 303.298 190.453C303.298 190.913 302.958 191.183 302.458 191.183C301.958 191.183 301.628 190.913 301.628 190.453C301.628 189.983 301.968 189.713 302.458 189.713ZM302.458 194.213C301.828 194.213 301.408 193.883 301.408 193.343C301.408 192.803 301.828 192.473 302.458 192.473C303.088 192.473 303.508 192.803 303.508 193.343C303.508 193.883 303.088 194.213 302.458 194.213Z" fill="#DDDDDD"/>
<path d="M300.074 138.463V139.993H301.374V145.463H303.354V138.463H300.074ZM307.496 145.603C309.276 145.603 310.576 144.273 310.576 141.963C310.576 139.653 309.276 138.323 307.496 138.323C305.706 138.323 304.406 139.653 304.406 141.963C304.406 144.273 305.706 145.603 307.496 145.603ZM307.496 143.983C306.856 143.983 306.396 143.433 306.396 141.963C306.396 140.493 306.856 139.943 307.496 139.943C308.126 139.943 308.586 140.493 308.586 141.963C308.586 143.433 308.126 143.983 307.496 143.983Z" fill="#DDDDDD"/>
<path d="M294.47 114.463V115.993H295.77V121.463H297.75V114.463H294.47ZM298.523 114.463V115.993H299.823V121.463H301.803V114.463H298.523Z" fill="#DDDDDD"/>
<path d="M270.484 72.4629V73.9929H271.784V79.4629H273.764V72.4629H270.484ZM278.407 75.2629L279.857 73.7029V72.4629H274.797V73.9929H277.557L276.307 75.3429V76.5929H277.137C277.897 76.5929 278.207 76.8529 278.207 77.2729C278.207 77.7429 277.767 78.0029 277.097 78.0029C276.437 78.0029 275.717 77.8029 275.157 77.4229L274.437 78.9129C275.157 79.3629 276.187 79.6029 277.157 79.6029C279.267 79.6029 280.207 78.4629 280.207 77.2729C280.207 76.2729 279.587 75.5129 278.407 75.2629Z" fill="#DDDDDD"/>
<path d="M53.507 77.8929L54.827 76.6729C55.827 75.7529 56.017 75.1329 56.017 74.4529C56.017 73.1529 54.907 72.3229 53.297 72.3229C51.917 72.3229 50.927 72.9029 50.397 73.7829L51.867 74.6029C52.147 74.1529 52.607 73.9229 53.117 73.9229C53.717 73.9229 54.017 74.1929 54.017 74.6429C54.017 74.9329 53.937 75.2529 53.377 75.7729L50.757 78.2229V79.4629H56.207V77.8929H53.507ZM60.3734 75.2629L61.8234 73.7029V72.4629H56.7634V73.9929H59.5234L58.2734 75.3429V76.5929H59.1034C59.8634 76.5929 60.1734 76.8529 60.1734 77.2729C60.1734 77.7429 59.7334 78.0029 59.0634 78.0029C58.4034 78.0029 57.6834 77.8029 57.1234 77.4229L56.4034 78.9129C57.1234 79.3629 58.1534 79.6029 59.1234 79.6029C61.2334 79.6029 62.1734 78.4629 62.1734 77.2729C62.1734 76.2729 61.5534 75.5129 60.3734 75.2629Z" fill="#DDDDDD"/>
<path d="M28.4826 121.893L29.8026 120.673C30.8026 119.753 30.9926 119.133 30.9926 118.453C30.9926 117.153 29.8826 116.323 28.2726 116.323C26.8926 116.323 25.9026 116.903 25.3726 117.783L26.8426 118.603C27.1226 118.153 27.5826 117.923 28.0926 117.923C28.6926 117.923 28.9926 118.193 28.9926 118.643C28.9926 118.933 28.9126 119.253 28.3526 119.773L25.7326 122.223V123.463H31.1826V121.893H28.4826ZM34.3789 119.013H33.9089L33.9989 117.993H36.8189V116.463H32.3589L32.0089 120.553H33.9089C34.9789 120.553 35.2689 120.833 35.2689 121.263C35.2689 121.733 34.8189 122.003 34.1489 122.003C33.4789 122.003 32.7789 121.803 32.2089 121.423L31.4989 122.913C32.2089 123.363 33.2389 123.603 34.2089 123.603C36.3189 123.603 37.2589 122.463 37.2589 121.213C37.2589 119.973 36.4489 119.013 34.3789 119.013Z" fill="#DDDDDD"/>
<path d="M21.2775 145.893L22.5975 144.673C23.5975 143.753 23.7875 143.133 23.7875 142.453C23.7875 141.153 22.6775 140.323 21.0675 140.323C19.6875 140.323 18.6975 140.903 18.1675 141.783L19.6375 142.603C19.9175 142.153 20.3775 141.923 20.8875 141.923C21.4875 141.923 21.7875 142.193 21.7875 142.643C21.7875 142.933 21.7075 143.253 21.1475 143.773L18.5275 146.223V147.463H23.9775V145.893H21.2775ZM28.1241 143.003C27.4641 143.003 26.9341 143.183 26.5441 143.523C26.6441 142.453 27.3141 141.893 28.3141 141.893C28.7641 141.893 29.2041 141.973 29.6041 142.253L30.3241 140.833C29.8141 140.503 29.0541 140.323 28.2641 140.323C26.0541 140.323 24.5441 141.713 24.5441 144.153C24.5441 146.423 25.8241 147.603 27.7841 147.603C29.3141 147.603 30.5341 146.673 30.5341 145.213C30.5341 143.873 29.4441 143.003 28.1241 143.003ZM27.6641 146.193C27.0641 146.193 26.6841 145.833 26.6841 145.313C26.6841 144.783 27.0841 144.423 27.6541 144.423C28.2241 144.423 28.6141 144.763 28.6141 145.303C28.6141 145.853 28.2241 146.193 27.6641 146.193Z" fill="#DDDDDD"/>
<path d="M18.175 192.893L19.495 191.673C20.495 190.753 20.685 190.133 20.685 189.453C20.685 188.153 19.575 187.323 17.965 187.323C16.585 187.323 15.595 187.903 15.065 188.783L16.535 189.603C16.815 189.153 17.275 188.923 17.785 188.923C18.385 188.923 18.685 189.193 18.685 189.643C18.685 189.933 18.605 190.253 18.045 190.773L15.425 193.223V194.463H20.875V192.893H18.175ZM26.4913 190.773C26.9613 190.443 27.2413 189.963 27.2413 189.363C27.2413 188.123 26.1013 187.323 24.4513 187.323C22.8013 187.323 21.6613 188.123 21.6613 189.363C21.6613 189.963 21.9413 190.443 22.4113 190.773C21.7813 191.133 21.4113 191.683 21.4113 192.403C21.4113 193.743 22.6413 194.603 24.4513 194.603C26.2613 194.603 27.4913 193.743 27.4913 192.403C27.4913 191.683 27.1213 191.133 26.4913 190.773ZM24.4513 188.713C24.9413 188.713 25.2913 188.983 25.2913 189.453C25.2913 189.913 24.9513 190.183 24.4513 190.183C23.9513 190.183 23.6213 189.913 23.6213 189.453C23.6213 188.983 23.9613 188.713 24.4513 188.713ZM24.4513 193.213C23.8213 193.213 23.4013 192.883 23.4013 192.343C23.4013 191.803 23.8213 191.473 24.4513 191.473C25.0813 191.473 25.5013 191.803 25.5013 192.343C25.5013 192.883 25.0813 193.213 24.4513 193.213Z" fill="#DDDDDD"/>
<path d="M25.2727 217.893L26.5927 216.673C27.5927 215.753 27.7827 215.133 27.7827 214.453C27.7827 213.153 26.6727 212.323 25.0627 212.323C23.6827 212.323 22.6927 212.903 22.1627 213.783L23.6327 214.603C23.9127 214.153 24.3727 213.923 24.8827 213.923C25.4827 213.923 25.7827 214.193 25.7827 214.643C25.7827 214.933 25.7027 215.253 25.1427 215.773L22.5227 218.223V219.463H27.9727V217.893H25.2727ZM31.109 212.323C29.589 212.323 28.369 213.253 28.369 214.713C28.369 216.053 29.459 216.923 30.779 216.923C31.439 216.923 31.959 216.743 32.349 216.413C32.239 217.473 31.579 218.033 30.589 218.033C30.139 218.033 29.699 217.953 29.299 217.673L28.579 219.093C29.089 219.423 29.849 219.603 30.629 219.603C32.849 219.603 34.359 218.213 34.359 215.773C34.359 213.503 33.079 212.323 31.109 212.323ZM31.249 215.503C30.679 215.503 30.289 215.163 30.289 214.623C30.289 214.073 30.679 213.733 31.239 213.733C31.839 213.733 32.219 214.093 32.219 214.613C32.219 215.143 31.819 215.503 31.249 215.503Z" fill="#DDDDDD"/>
<path d="M252.996 55.4629V56.9929H254.296V62.4629H256.276V55.4629H252.996ZM263.928 59.5529H262.888V58.3629H261.018V59.5529H259.598L262.448 55.4629H260.398L257.258 59.8329V61.1229H260.958V62.4629H262.888V61.1229H263.928V59.5529Z" fill="#DDDDDD"/>
<path d="M72.5266 60.8929L73.8466 59.6729C74.8466 58.7529 75.0366 58.1329 75.0366 57.4529C75.0366 56.1529 73.9266 55.3229 72.3166 55.3229C70.9366 55.3229 69.9466 55.9029 69.4166 56.7829L70.8866 57.6029C71.1666 57.1529 71.6266 56.9229 72.1366 56.9229C72.7366 56.9229 73.0366 57.1929 73.0366 57.6429C73.0366 57.9329 72.9566 58.2529 72.3966 58.7729L69.7766 61.2229V62.4629H75.2266V60.8929H72.5266ZM78.5129 60.8929L79.8329 59.6729C80.8329 58.7529 81.0229 58.1329 81.0229 57.4529C81.0229 56.1529 79.9129 55.3229 78.3029 55.3229C76.9229 55.3229 75.9329 55.9029 75.4029 56.7829L76.8729 57.6029C77.1529 57.1529 77.6129 56.9229 78.1229 56.9229C78.7229 56.9229 79.0229 57.1929 79.0229 57.6429C79.0229 57.9329 78.9429 58.2529 78.3829 58.7729L75.7629 61.2229V62.4629H81.2129V60.8929H78.5129Z" fill="#DDDDDD"/>
<path d="M209.249 31.4629V32.9929H210.549V38.4629H212.529V31.4629H209.249ZM217.162 34.0029C216.502 34.0029 215.972 34.1829 215.582 34.5229C215.682 33.4529 216.352 32.8929 217.352 32.8929C217.802 32.8929 218.242 32.9729 218.642 33.2529L219.362 31.8329C218.852 31.5029 218.092 31.3229 217.302 31.3229C215.092 31.3229 213.582 32.7129 213.582 35.1529C213.582 37.4229 214.862 38.6029 216.822 38.6029C218.352 38.6029 219.572 37.6729 219.572 36.2129C219.572 34.8729 218.482 34.0029 217.162 34.0029ZM216.702 37.1929C216.102 37.1929 215.722 36.8329 215.722 36.3129C215.722 35.7829 216.122 35.4229 216.692 35.4229C217.262 35.4229 217.652 35.7629 217.652 36.3029C217.652 36.8529 217.262 37.1929 216.702 37.1929Z" fill="#DDDDDD"/>
<path d="M112.102 36.8929L113.422 35.6729C114.422 34.7529 114.612 34.1329 114.612 33.4529C114.612 32.1529 113.502 31.3229 111.892 31.3229C110.512 31.3229 109.522 31.9029 108.992 32.7829L110.462 33.6029C110.742 33.1529 111.202 32.9229 111.712 32.9229C112.312 32.9229 112.612 33.1929 112.612 33.6429C112.612 33.9329 112.532 34.2529 111.972 34.7729L109.352 37.2229V38.4629H114.802V36.8929H112.102ZM118.458 38.6029C120.238 38.6029 121.538 37.2729 121.538 34.9629C121.538 32.6529 120.238 31.3229 118.458 31.3229C116.668 31.3229 115.368 32.6529 115.368 34.9629C115.368 37.2729 116.668 38.6029 118.458 38.6029ZM118.458 36.9829C117.818 36.9829 117.358 36.4329 117.358 34.9629C117.358 33.4929 117.818 32.9429 118.458 32.9429C119.088 32.9429 119.548 33.4929 119.548 34.9629C119.548 36.4329 119.088 36.9829 118.458 36.9829Z" fill="#DDDDDD"/>
<path d="M183.337 25.4629V26.9929H184.637V32.4629H186.617V25.4629H183.337ZM187.56 25.4629V28.1129H189.25V27.0329H191.09L188.73 32.4629H190.89L193.36 26.7029V25.4629H187.56Z" fill="#DDDDDD"/>
<path d="M135.249 25.4629V26.9929H136.549V32.4629H138.529V25.4629H135.249ZM142.142 25.3229C140.622 25.3229 139.402 26.2529 139.402 27.7129C139.402 29.0529 140.492 29.9229 141.812 29.9229C142.472 29.9229 142.992 29.7429 143.382 29.4129C143.272 30.4729 142.612 31.0329 141.622 31.0329C141.172 31.0329 140.732 30.9529 140.332 30.6729L139.612 32.0929C140.122 32.4229 140.882 32.6029 141.662 32.6029C143.882 32.6029 145.392 31.2129 145.392 28.7729C145.392 26.5029 144.112 25.3229 142.142 25.3229ZM142.282 28.5029C141.712 28.5029 141.322 28.1629 141.322 27.6229C141.322 27.0729 141.712 26.7329 142.272 26.7329C142.872 26.7329 143.252 27.0929 143.252 27.6129C143.252 28.1429 142.852 28.5029 142.282 28.5029Z" fill="#DDDDDD"/>
</svg>
