<svg width="21" height="18" viewBox="0 0 21 18" fill="none" xmlns="http://www.w3.org/2000/svg">
<path d="M0.5 2C0.5 0.89543 1.39543 0 2.5 0H18.5C19.6046 0 20.5 0.89543 20.5 2V13C20.5 14.1046 19.6046 15 18.5 15H13.9142L11.2071 17.7071C10.8166 18.0976 10.1834 18.0976 9.79289 17.7071L7.08579 15H2.5C1.39543 15 0.5 14.1046 0.5 13V2ZM18.5 2H2.5V13H7.5C7.76522 13 8.01957 13.1054 8.20711 13.2929L10.5 15.5858L12.7929 13.2929C12.9804 13.1054 13.2348 13 13.5 13H18.5V2ZM4.5 5.5C4.5 4.94772 4.94772 4.5 5.5 4.5H15.5C16.0523 4.5 16.5 4.94772 16.5 5.5C16.5 6.05228 16.0523 6.5 15.5 6.5H5.5C4.94772 6.5 4.5 6.05228 4.5 5.5ZM4.5 9.5C4.5 8.94772 4.94772 8.5 5.5 8.5H11.5C12.0523 8.5 12.5 8.94772 12.5 9.5C12.5 10.0523 12.0523 10.5 11.5 10.5H5.5C4.94772 10.5 4.5 10.0523 4.5 9.5Z" fill="white"/>
</svg>
