<svg width="20" height="20" viewBox="0 0 20 20" fill="none" xmlns="http://www.w3.org/2000/svg">
<path fill-rule="evenodd" clip-rule="evenodd" d="M14.054 8.64857C14.054 11.6339 11.6339 14.054 8.64857 14.054C5.66325 14.054 3.24316 11.6339 3.24316 8.64857C3.24316 5.66325 5.66325 3.24316 8.64857 3.24316C11.6339 3.24316 14.054 5.66325 14.054 8.64857ZM8.64857 12.0884C10.5483 12.0884 12.0884 10.5483 12.0884 8.64857C12.0884 6.74882 10.5483 5.20877 8.64857 5.20877C6.74882 5.20877 5.20877 6.74882 5.20877 8.64857C5.20877 10.5483 6.74882 12.0884 8.64857 12.0884Z" fill="#8F8F8F"/>
<path fill-rule="evenodd" clip-rule="evenodd" d="M14.8484 17.0401L10.9799 13.1717L12.3477 11.804L16.2161 15.6724L14.8484 17.0401Z" fill="#8F8F8F"/>
</svg>
