<svg width="33" height="35" viewBox="0 0 33 35" xmlns="http://www.w3.org/2000/svg">
<path d="M31.8569 14.0068L28.0167 6.85987C27.4064 5.75199 26.4646 4.89449 25.3423 4.4248L22.7936 3.2925C22.7404 3.10801 22.6508 2.9378 22.5307 2.79331L20.2449 0.358243C20.1272 0.238802 19.9869 0.147484 19.8334 0.0903859H19.6734C19.5954 0.0559196 19.5152 0.027438 19.4334 0.00515874H12.5759C12.4922 -0.00171958 12.4081 -0.00171958 12.3245 0.00515874C12.2751 -0.000479248 12.2253 -0.000479248 12.1759 0.00515874C12.0224 0.062257 11.8821 0.153575 11.7644 0.273016L9.47859 2.70808C9.35852 2.85257 9.26888 3.02279 9.21572 3.20727L6.66701 4.29087C5.54468 4.76056 4.60288 5.61807 3.99258 6.72594L0.152373 14.0068C0.0743978 14.1511 0.025038 14.3109 0.00734546 14.4763C-0.0103471 14.6418 0.00400346 14.8093 0.04951 14.9686C0.0951993 15.1261 0.170419 15.272 0.270613 15.3976C0.370806 15.5232 0.493887 15.6257 0.632399 15.6991L6.86131 19.023V28.7633C6.86123 29.5069 7.05725 30.2356 7.42705 30.8663C7.79684 31.4971 8.32552 32.0044 8.95285 32.3306C11.1494 33.4563 13.5557 34.0408 15.9932 34.0408C18.4308 34.0408 20.837 33.4563 23.0336 32.3306C23.6575 32.0104 24.1855 31.5118 24.5589 30.8905C24.9322 30.2692 25.1362 29.5496 25.148 28.812V19.0717L31.3769 15.7479C31.5154 15.6744 31.6385 15.5719 31.7387 15.4463C31.8389 15.3207 31.9141 15.1748 31.9598 15.0173C32.012 14.8509 32.0299 14.6745 32.0121 14.5001C31.9944 14.3257 31.9414 14.1574 31.8569 14.0068ZM16.0047 4.94834L14.5989 2.44022H17.4104L16.0047 4.94834ZM12.3473 3.18292L14.2903 6.64071L13.1474 7.0425L11.6844 3.90126L12.3473 3.18292ZM19.662 3.18292L20.3249 3.90126L18.8505 7.0425L17.7076 6.64071L19.662 3.18292ZM25.148 16.2957V14.6155C25.148 14.2926 25.0276 13.983 24.8133 13.7546C24.5989 13.5263 24.3082 13.398 24.0051 13.398C23.702 13.398 23.4113 13.5263 23.1969 13.7546C22.9826 13.983 22.8622 14.2926 22.8622 14.6155V28.812C22.8649 29.1016 22.79 29.3861 22.6463 29.6319C22.5025 29.8778 22.2959 30.0748 22.0507 30.2C20.16 31.1656 18.09 31.6668 15.9932 31.6668C13.8965 31.6668 11.8265 31.1656 9.93576 30.2C9.6948 30.0714 9.4929 29.8728 9.35336 29.6272C9.21381 29.3816 9.14232 29.099 9.14714 28.812V14.6155C9.14714 14.2926 9.02673 13.983 8.81239 13.7546C8.59805 13.5263 8.30735 13.398 8.00423 13.398C7.7011 13.398 7.4104 13.5263 7.19606 13.7546C6.98172 13.983 6.86131 14.2926 6.86131 14.6155V16.2957L2.73537 14.1042L5.98126 8.01652C6.33257 7.38801 6.87193 6.90347 7.51277 6.64071L9.92433 5.60581L11.5587 9.07577C11.6537 9.27656 11.799 9.44541 11.9785 9.56361C12.1581 9.68181 12.3648 9.74473 12.5759 9.74542C12.6998 9.74298 12.8229 9.72249 12.9416 9.68454L16.0047 8.58876L19.0677 9.68454C19.1864 9.72249 19.3095 9.74298 19.4334 9.74542C19.6445 9.74473 19.8512 9.68181 20.0308 9.56361C20.2103 9.44541 20.3556 9.27656 20.4506 9.07577L22.085 5.60581L24.4851 6.64071C25.1382 6.91187 25.6833 7.4151 26.0281 8.06522L29.2739 14.1529L25.148 16.2957Z"/>
</svg>
