<?xml version="1.0" encoding="UTF-8" standalone="no"?> <svg width="64" height="64" viewBox="0 0 64 64" xmlns="http://www.w3.org/2000/svg">
<path d="M62.34 12.0596L32.34 1.05957C32.1203 0.980142 31.8797 0.980142 31.66 1.05957L1.66 12.0596C1.46673 12.1294 1.29968 12.2572 1.18159 12.4254C1.06349 12.5936 1.00009 12.7941 1 12.9996V50.9996C1.00009 51.2051 1.06349 51.4056 1.18159 51.5738C1.29968 51.742 1.46673 51.8697 1.66 51.9396L31.66 62.9396C31.8797 63.019 32.1203 63.019 32.34 62.9396L62.34 51.9396C62.5333 51.8697 62.7003 51.742 62.8184 51.5738C62.9365 51.4056 62.9999 51.2051 63 50.9996V12.9996C62.9999 12.7941 62.9365 12.5936 62.8184 12.4254C62.7003 12.2572 62.5333 12.1294 62.34 12.0596ZM46 8.17957L18.62 19.6496L12.86 16.9996L40.61 6.21957L46 8.17957ZM17 21.0996V40.6996L14.83 37.4496C14.7385 37.3134 14.615 37.2019 14.4702 37.1248C14.3255 37.0477 14.164 37.0073 14 37.0073C13.836 37.0073 13.6745 37.0477 13.5298 37.1248C13.385 37.2019 13.2615 37.3134 13.17 37.4496L11 40.6996V18.2996L17 21.0996ZM32 3.09957L37.76 5.21957L10.35 15.7896L4.6 13.1096L32 3.09957ZM31 60.5696L3 50.2996V14.5696L9 17.3696V43.9996C8.99052 44.2214 9.05515 44.4401 9.18371 44.6212C9.31226 44.8023 9.49742 44.9354 9.71 44.9996C9.91596 45.0606 10.1361 45.0537 10.3378 44.9798C10.5395 44.906 10.7121 44.7691 10.83 44.5896L14 39.7996L17.17 44.5496C17.2606 44.6871 17.3838 44.8002 17.5285 44.8787C17.6733 44.9572 17.8353 44.9987 18 44.9996C18.0962 45.0137 18.1938 45.0137 18.29 44.9996C18.5026 44.9354 18.6877 44.8023 18.8163 44.6212C18.9449 44.4401 19.0095 44.2214 19 43.9996V21.9996L31 27.5996V60.5696ZM32 25.8996L21.07 20.7996L48.72 9.19957L59.4 13.1096L32 25.8996ZM61 50.2996L33 60.5696V27.6396L61 14.5696V50.2996Z"/>
</svg>
