<svg width="27" height="23" viewBox="0 0 27 23" fill="none" xmlns="http://www.w3.org/2000/svg">
<path d="M19.7964 2.14602C21.4758 2.14602 22.7124 2.55377 23.5764 3.39072C24.4296 4.21693 24.84 5.39725 24.84 7.00676C24.84 8.61092 23.895 10.3599 22.0374 12.2109L13.5 20.3765L4.9356 12.1679L4.8708 12.1036L4.7952 12.0392C4.7952 12.0392 4.7304 11.9855 4.5738 11.8246C4.5144 11.7656 4.3308 11.5671 3.8772 10.9984C3.5532 10.6014 3.2616 10.1936 3.0132 9.7805C2.7972 9.42104 2.592 8.95428 2.403 8.40168C2.241 7.90809 2.16 7.44133 2.16 7.00676C2.16 5.39725 2.5704 4.21693 3.4236 3.39072C4.2876 2.55377 5.5242 2.14602 7.2036 2.14602C7.5924 2.14602 8.0028 2.21577 8.424 2.35526C8.8938 2.51085 9.3312 2.72008 9.7308 2.98297C10.2276 3.31024 10.6596 3.61605 11.0052 3.88967C11.3454 4.15792 11.6694 4.44763 11.9718 4.74808L13.5 6.26639L15.0282 4.74808C15.3306 4.44763 15.66 4.15792 15.9948 3.88967C16.3458 3.61068 16.7778 3.30488 17.2746 2.98297C17.6742 2.72545 18.1116 2.51085 18.576 2.36063C18.9972 2.21577 19.413 2.14602 19.7964 2.14602ZM19.7964 0C19.1754 0 18.5382 0.107301 17.8902 0.321903C17.2422 0.536506 16.6374 0.826219 16.0812 1.19104C15.525 1.55587 15.0444 1.89923 14.6448 2.21577C14.2452 2.53767 13.8618 2.87567 13.5 3.23513C13.1382 2.87567 12.7548 2.53767 12.3552 2.21577C11.9556 1.89387 11.475 1.55587 10.9188 1.19104C10.3572 0.826219 9.7578 0.536506 9.1098 0.321903C8.4618 0.107301 7.8246 0 7.2036 0C4.9518 0 3.1914 0.616982 1.9116 1.85631C0.6372 3.09564 0 4.81246 0 7.00676C0 7.6774 0.1188 8.36412 0.3564 9.07231C0.594 9.7805 0.8586 10.3868 1.161 10.8857C1.4634 11.3847 1.8036 11.8729 2.187 12.345C2.5704 12.8171 2.8458 13.1444 3.024 13.3268C3.2022 13.5038 3.3372 13.638 3.4398 13.7185L12.8412 22.7317C13.0194 22.9088 13.2408 23 13.5054 23C13.7646 23 13.986 22.9088 14.1696 22.7317L23.5548 13.7506C25.8498 11.4544 27 9.2118 27 7.00676C27 4.81246 26.3628 3.09564 25.0884 1.85631C23.8086 0.616982 22.0482 0 19.7964 0Z" fill="white"/>
</svg>
