<svg width="16" height="15" viewBox="0 0 16 15" fill="none" xmlns="http://www.w3.org/2000/svg">
<path d="M1.33337 3.75C1.33337 3.05964 1.93033 2.5 2.66671 2.5H13.3334C14.0698 2.5 14.6667 3.05964 14.6667 3.75V10.625C14.6667 11.3154 14.0698 11.875 13.3334 11.875H10.2762L8.47145 13.5669C8.2111 13.811 7.78899 13.811 7.52864 13.5669L5.7239 11.875H2.66671C1.93033 11.875 1.33337 11.3154 1.33337 10.625V3.75ZM13.3334 3.75H2.66671V10.625H6.00004C6.17685 10.625 6.34642 10.6908 6.47145 10.8081L8.00004 12.2411L9.52864 10.8081C9.65366 10.6908 9.82323 10.625 10 10.625H13.3334V3.75Z" fill="white"/>
<path d="M9.00004 7.1875C9.00004 7.70527 8.55233 8.125 8.00004 8.125C7.44776 8.125 7.00004 7.70527 7.00004 7.1875C7.00004 6.66973 7.44776 6.25 8.00004 6.25C8.55233 6.25 9.00004 6.66973 9.00004 7.1875Z" fill="white"/>
<path d="M11.6667 7.1875C11.6667 7.70527 11.219 8.125 10.6667 8.125C10.1144 8.125 9.66671 7.70527 9.66671 7.1875C9.66671 6.66973 10.1144 6.25 10.6667 6.25C11.219 6.25 11.6667 6.66973 11.6667 7.1875Z" fill="white"/>
<path d="M6.33337 7.1875C6.33337 7.70527 5.88566 8.125 5.33337 8.125C4.78109 8.125 4.33337 7.70527 4.33337 7.1875C4.33337 6.66973 4.78109 6.25 5.33337 6.25C5.88566 6.25 6.33337 6.66973 6.33337 7.1875Z" fill="white"/>
</svg>
