<svg width="17" height="21" viewBox="0 0 17 21" fill="none" xmlns="http://www.w3.org/2000/svg">
<path d="M15.25 0.916992H1.75C1.45163 0.916992 1.16548 1.01796 0.954505 1.19768C0.743527 1.3774 0.625 1.62116 0.625 1.87533V19.1253C0.624986 19.3085 0.686615 19.4879 0.802586 19.6422C0.918557 19.7964 1.08401 19.9192 1.27935 19.9958C1.47468 20.0725 1.69171 20.0998 1.90473 20.0746C2.11774 20.0494 2.31782 19.9727 2.48125 19.8537L8.5 15.5507L14.4513 19.8057C14.5564 19.8946 14.681 19.9648 14.8181 20.0125C14.9552 20.0602 15.1019 20.0844 15.25 20.0837C15.3976 20.0869 15.544 20.0606 15.6775 20.007C15.8829 19.9351 16.0588 19.813 16.1829 19.6561C16.3071 19.4992 16.3739 19.3145 16.375 19.1253V1.87533C16.375 1.62116 16.2565 1.3774 16.0455 1.19768C15.8345 1.01796 15.5484 0.916992 15.25 0.916992ZM14.125 17.0745L9.22 13.567C9.01785 13.4236 8.76309 13.345 8.5 13.345C8.23691 13.345 7.98215 13.4236 7.78 13.567L2.875 17.0745V2.83366H14.125V17.0745Z" fill="white"/>
</svg>
