<svg width="23" height="22" viewBox="0 0 23 22" fill="none" xmlns="http://www.w3.org/2000/svg">
<path d="M18.4015 13.2142C17.7223 13.2185 17.0525 13.3665 16.4402 13.6475C15.828 13.9285 15.2886 14.3357 14.8606 14.8396L8.99755 12.2588C9.27321 11.4524 9.27321 10.5831 8.99755 9.77676L14.8606 7.19594C15.5523 7.99321 16.5165 8.53146 17.5831 8.7157C18.6498 8.89994 19.7502 8.71833 20.6903 8.2029C21.6304 7.68748 22.3497 6.87139 22.7213 5.89865C23.0928 4.92592 23.0927 3.85908 22.721 2.88641C22.3493 1.91374 21.6298 1.09777 20.6896 0.582508C19.7494 0.0672491 18.6489 -0.114177 17.5823 0.0702476C16.5157 0.254673 15.5516 0.793094 14.8601 1.59049C14.1686 2.38788 13.7942 3.39298 13.803 4.42841C13.8064 4.69005 13.8334 4.95091 13.8835 5.20815L7.81343 7.87684C7.16628 7.27235 6.34679 6.86374 5.45763 6.70221C4.56846 6.54067 3.64916 6.63339 2.81492 6.96875C1.98067 7.30411 1.26857 7.86719 0.767833 8.58746C0.267099 9.30772 0 10.1531 0 11.0178C0 11.8824 0.267099 12.7278 0.767833 13.4481C1.26857 14.1683 1.98067 14.7314 2.81492 15.0668C3.64916 15.4021 4.56846 15.4948 5.45763 15.3333C6.34679 15.1718 7.16628 14.7632 7.81343 14.1587L13.8835 16.8274C13.8334 17.0846 13.8064 17.3455 13.803 17.6071C13.803 18.4759 14.0727 19.3253 14.578 20.0477C15.0833 20.7701 15.8015 21.3331 16.6417 21.6656C17.482 21.9981 18.4066 22.0851 19.2986 21.9156C20.1906 21.7461 21.01 21.3277 21.6531 20.7133C22.2962 20.099 22.7342 19.3163 22.9116 18.4641C23.0891 17.612 22.998 16.7287 22.65 15.926C22.3019 15.1233 21.7125 14.4372 20.9563 13.9545C20.2001 13.4718 19.311 13.2142 18.4015 13.2142ZM18.4015 2.23197C18.8562 2.23197 19.3008 2.36079 19.6789 2.60213C20.057 2.84348 20.3517 3.18652 20.5257 3.58787C20.6998 3.98922 20.7453 4.43085 20.6566 4.85692C20.5678 5.28299 20.3489 5.67436 20.0273 5.98154C19.7058 6.28872 19.2961 6.49791 18.8501 6.58266C18.404 6.66741 17.9417 6.62391 17.5216 6.45767C17.1015 6.29142 16.7424 6.0099 16.4897 5.64869C16.2371 5.28749 16.1022 4.86283 16.1022 4.42841C16.1022 3.84588 16.3445 3.2872 16.7757 2.87529C17.2069 2.46338 17.7917 2.23197 18.4015 2.23197V2.23197ZM4.60598 13.2142C4.15123 13.2142 3.70669 13.0854 3.32858 12.844C2.95047 12.6027 2.65577 12.2597 2.48174 11.8583C2.30772 11.457 2.26218 11.0153 2.3509 10.5893C2.43962 10.1632 2.6586 9.77181 2.98016 9.46464C3.30171 9.15746 3.7114 8.94826 4.15741 8.86351C4.60343 8.77876 5.06573 8.82226 5.48586 8.9885C5.906 9.15475 6.26509 9.43627 6.51773 9.79748C6.77038 10.1587 6.90523 10.5833 6.90523 11.0178C6.90523 11.6003 6.66299 12.159 6.23179 12.5709C5.8006 12.9828 5.21578 13.2142 4.60598 13.2142ZM18.4015 19.8036C17.9467 19.8036 17.5022 19.6747 17.1241 19.4334C16.746 19.192 16.4513 18.849 16.2773 18.4476C16.1032 18.0463 16.0577 17.6047 16.1464 17.1786C16.2351 16.7525 16.4541 16.3612 16.7757 16.054C17.0972 15.7468 17.5069 15.5376 17.9529 15.4529C18.3989 15.3681 18.8612 15.4116 19.2814 15.5778C19.7015 15.7441 20.0606 16.0256 20.3133 16.3868C20.5659 16.748 20.7007 17.1727 20.7007 17.6071C20.7007 18.1896 20.4585 18.7483 20.0273 19.1602C19.5961 19.5721 19.0113 19.8036 18.4015 19.8036Z" fill="white"/>
</svg>
