<svg width="25" height="24" viewBox="0 0 25 24" fill="none" xmlns="http://www.w3.org/2000/svg">
<path d="M10.0033 2.62435C7.42593 2.62435 5.33659 4.71369 5.33659 7.29102C5.33659 9.86835 7.42593 11.9577 10.0033 11.9577C12.5806 11.9577 14.6699 9.86835 14.6699 7.29102C14.6699 4.71369 12.5806 2.62435 10.0033 2.62435ZM3.00326 7.29102C3.00326 3.42502 6.13726 0.291016 10.0033 0.291016C13.8692 0.291016 17.0033 3.42502 17.0033 7.29102C17.0033 11.157 13.8692 14.291 10.0033 14.291C6.13726 14.291 3.00326 11.157 3.00326 7.29102ZM17.9698 2.34127C18.4254 1.88566 19.1641 1.88566 19.6197 2.34127C22.3533 5.07494 22.3533 9.50709 19.6197 12.2408C19.1641 12.6964 18.4254 12.6964 17.9698 12.2408C17.5141 11.7852 17.5141 11.0465 17.9698 10.5908C19.7922 8.7684 19.7922 5.81363 17.9698 3.99118C17.5141 3.53557 17.5141 2.79688 17.9698 2.34127ZM18.7881 17.5081C18.9444 16.883 19.5778 16.5029 20.2029 16.6592C21.7521 17.0465 22.7328 18.0371 23.2968 19.1651C23.8425 20.2566 24.0033 21.4743 24.0033 22.4577C24.0033 23.102 23.4809 23.6243 22.8366 23.6243C22.1923 23.6243 21.6699 23.102 21.6699 22.4577C21.6699 21.691 21.539 20.8671 21.2098 20.2086C20.8988 19.5866 20.4211 19.1189 19.637 18.9228C19.0119 18.7666 18.6318 18.1332 18.7881 17.5081ZM5.91992 18.9577C4.45055 18.9577 3.00326 20.3735 3.00326 22.4577C3.00326 23.102 2.48092 23.6243 1.83659 23.6243C1.19226 23.6243 0.669922 23.102 0.669922 22.4577C0.669922 19.3872 2.87897 16.6243 5.91992 16.6243H14.0866C17.1275 16.6243 19.3366 19.3872 19.3366 22.4577C19.3366 23.102 18.8143 23.6244 18.1699 23.6244C17.5256 23.6244 17.0033 23.102 17.0033 22.4577C17.0033 20.3735 15.556 18.9577 14.0866 18.9577H5.91992Z" fill="white"/>
</svg>
