<svg width="21" height="25" viewBox="0 0 21 25" fill="none" xmlns="http://www.w3.org/2000/svg">
<path d="M5.66671 1.62484C5.66671 0.957493 6.2077 0.416504 6.87504 0.416504H14.125C14.7924 0.416504 15.3334 0.957493 15.3334 1.62484H17.75C19.0847 1.62484 20.1667 2.70682 20.1667 4.0415V22.1665C20.1667 23.5012 19.0847 24.5832 17.75 24.5832H3.25004C1.91535 24.5832 0.833374 23.5012 0.833374 22.1665V4.0415C0.833374 2.70682 1.91535 1.62484 3.25004 1.62484H5.66671ZM5.66671 4.0415H3.25004V22.1665H17.75V4.0415H15.3334V5.24984C15.3334 5.91718 14.7924 6.45817 14.125 6.45817H6.87504C6.2077 6.45817 5.66671 5.91718 5.66671 5.24984V4.0415ZM12.9167 2.83317H8.08337V4.0415H12.9167V2.83317Z" fill="white"/>
</svg>
