<svg width="20" height="20" viewBox="0 0 20 20" fill="none" xmlns="http://www.w3.org/2000/svg">
<path d="M19.0201 0.979999C18.3832 0.371375 17.5361 0.0317383 16.6551 0.0317383C15.7742 0.0317383 14.9271 0.371375 14.2901 0.979999L1.34263 13.9275C0.915893 14.3519 0.577522 14.8567 0.347088 15.4127C0.116654 15.9687 -0.00127008 16.5648 0.000134471 17.1667V18.75C0.000134471 19.0815 0.131831 19.3995 0.366251 19.6339C0.600671 19.8683 0.918614 20 1.25013 20H2.83347C3.4356 20.0016 4.03207 19.8838 4.58836 19.6534C5.14465 19.4229 5.6497 19.0844 6.0743 18.6575L19.0201 5.71C19.6465 5.08228 19.9982 4.23174 19.9982 3.345C19.9982 2.45825 19.6465 1.60772 19.0201 0.979999ZM4.30513 16.89C3.91379 17.2788 3.38512 17.4979 2.83347 17.5H2.50013V17.1667C2.50185 16.6145 2.721 16.0851 3.11013 15.6933L12.7501 6.05583L13.9443 7.25L4.30513 16.89ZM17.2501 3.9425L15.7118 5.48333L14.5168 4.28833L16.0585 2.75C16.2193 2.59632 16.4331 2.51055 16.6556 2.51055C16.878 2.51055 17.0918 2.59632 17.2526 2.75C17.4098 2.9088 17.4978 3.12334 17.4973 3.34676C17.4968 3.57019 17.408 3.78436 17.2501 3.9425Z" fill="#8F8F8F"/>
</svg>
