<svg width="28" height="28" viewBox="0 0 28 28" fill="none" xmlns="http://www.w3.org/2000/svg">
    <path d="M10.5 2.333c.644 0 1.167.523 1.167 1.167v1.167h4.666V3.5a1.167 1.167 0 0 1 2.334 0v1.167h3.5A2.333 2.333 0 0 1 24.5 7v15.167a2.333 2.333 0 0 1-2.333 2.333H5.833A2.333 2.333 0 0 1 3.5 22.167V7a2.333 2.333 0 0 1 2.333-2.333h3.5V3.5c0-.644.523-1.167 1.167-1.167zM9.333 7h-3.5v3.5h16.334V7h-3.5v1.167a1.167 1.167 0 0 1-2.334 0V7h-4.666v1.167a1.167 1.167 0 0 1-2.334 0V7zm12.834 5.833H5.833v9.334h16.334v-9.334z" fill="#fff"/>
</svg>
