<svg width="34" height="35" viewBox="0 0 34 35" fill="none" xmlns="http://www.w3.org/2000/svg">
    <path d="M17 5.833c-6.26 0-11.333 5.224-11.333 11.667S10.74 29.167 17 29.167c6.26 0 11.333-5.224 11.333-11.667S23.26 5.833 17 5.833zM2.833 17.5C2.833 9.446 9.176 2.917 17 2.917S31.167 9.446 31.167 17.5 24.824 32.083 17 32.083 2.833 25.554 2.833 17.5zM17 10.208c.782 0 1.417.653 1.417 1.459v4.375h4.25c.782 0 1.416.653 1.416 1.458 0 .805-.634 1.458-1.416 1.458h-4.25v4.375c0 .806-.635 1.459-1.417 1.459s-1.417-.653-1.417-1.459v-4.375h-4.25c-.782 0-1.416-.652-1.416-1.458 0-.805.634-1.458 1.416-1.458h4.25v-4.375c0-.806.635-1.459 1.417-1.459z" fill="#fff"/>
</svg>
