<svg width="28" height="28" viewBox="0 0 28 28" fill="none" xmlns="http://www.w3.org/2000/svg">
    <path d="M27.04 10.886 14.337 5.322a.83.83 0 0 0-.674 0L.96 10.886c-.678.296-.678 1.274 0 1.571l4.572 2.004v5.344c0 2.879 3.722 5.135 8.468 5.135 4.747 0 8.468-2.256 8.468-5.135V14.46l.848-.37v9.138c0 .473.38.858.848.858a.854.854 0 0 0 .847-.858v-9.882l2.03-.89c.677-.297.677-1.27 0-1.571zM14 7.04l10.573 4.63-.837.366-9.627-1.216a.85.85 0 0 0-.946.743.855.855 0 0 0 .736.956l6.783.857-6.678 2.927-10.573-4.63L14 7.04zm6.776 12.765c0 .805-.656 1.637-1.797 2.278-2.722 1.527-7.229 1.531-9.957 0-1.142-.641-1.797-1.473-1.797-2.278V15.2l6.438 2.82c.214.095.46.095.674 0l6.439-2.82v4.604z" fill="#fff"/>
</svg>
