<svg width="30" height="31" viewBox="0 0 30 31"  xmlns="http://www.w3.org/2000/svg">
<path d="M15 3.83366C8.74081 3.83366 3.66671 9.057 3.66671 15.5003C3.66671 21.9436 8.74081 27.167 15 27.167C21.2593 27.167 26.3334 21.9436 26.3334 15.5003C26.3334 9.057 21.2593 3.83366 15 3.83366ZM0.833374 15.5003C0.833374 7.44617 7.17601 0.916992 15 0.916992C22.8241 0.916992 29.1667 7.44617 29.1667 15.5003C29.1667 23.5545 22.8241 30.0837 15 30.0837C7.17601 30.0837 0.833374 23.5545 0.833374 15.5003ZM15 8.20866C15.7824 8.20866 16.4167 8.86158 16.4167 9.66699V14.042H20.6667C21.4491 14.042 22.0834 14.6949 22.0834 15.5003C22.0834 16.3057 21.4491 16.9587 20.6667 16.9587H16.4167V21.3337C16.4167 22.1391 15.7824 22.792 15 22.792C14.2176 22.792 13.5834 22.1391 13.5834 21.3337V16.9587H9.33337C8.55097 16.9587 7.91671 16.3057 7.91671 15.5003C7.91671 14.6949 8.55097 14.042 9.33337 14.042H13.5834V9.66699C13.5834 8.86158 14.2176 8.20866 15 8.20866Z"/>
</svg>
