<svg width="17" height="24" viewBox="0 0 17 24" fill="none" xmlns="http://www.w3.org/2000/svg">
<path d="M15.3366 0.291016H1.33659C1.02717 0.291016 0.730423 0.413932 0.511631 0.632724C0.292838 0.851517 0.169922 1.14826 0.169922 1.45768V22.4577C0.169907 22.6807 0.233819 22.8991 0.354085 23.0869C0.474351 23.2747 0.645933 23.4241 0.848502 23.5174C1.05107 23.6107 1.27614 23.644 1.49705 23.6133C1.71795 23.5827 1.92544 23.4893 2.09492 23.3443L8.33659 18.106L14.5083 23.286C14.6173 23.3941 14.7466 23.4797 14.8887 23.5377C15.0308 23.5958 15.1831 23.6252 15.3366 23.6243C15.4896 23.6283 15.6415 23.5963 15.7799 23.531C15.993 23.4435 16.1754 23.2949 16.3041 23.1039C16.4328 22.9128 16.5021 22.688 16.5033 22.4577V1.45768C16.5033 1.14826 16.3803 0.851517 16.1616 0.632724C15.9428 0.413932 15.646 0.291016 15.3366 0.291016V0.291016ZM14.1699 19.961L9.08326 15.691C8.87362 15.5164 8.60942 15.4208 8.33659 15.4208C8.06376 15.4208 7.79956 15.5164 7.58992 15.691L2.50326 19.961V2.62435H14.1699V19.961Z" fill="white"/>
</svg>
