<svg width="24" height="27" viewBox="0 0 24 27" fill="none" xmlns="http://www.w3.org/2000/svg">
<path d="M15.8714 24.4042H21.5331V11.7773L11.7167 2.9299L2.4629 11.7618V24.4003H8.12455V17.9553C8.12455 17.4679 8.52586 17.0772 9.01766 17.0772H14.9783C15.4741 17.0772 15.8714 17.4717 15.8714 17.9553V24.4042ZM22.4301 26.1605H14.9783C14.4826 26.1605 14.0852 25.7659 14.0852 25.2823V18.8335H9.91078V25.2823C9.91078 25.7698 9.50947 26.1605 9.01766 26.1605H1.56585C1.07404 26.1605 0.672729 25.7659 0.672729 25.2823V11.3904C0.672729 11.1544 0.77109 10.9262 0.944205 10.7598L11.0793 1.08848C11.4177 0.763519 11.9567 0.755782 12.3068 1.073L23.036 10.7444C23.221 10.9107 23.3272 11.1467 23.3272 11.3943V25.2862C23.3233 25.7698 22.9259 26.1605 22.4301 26.1605Z" fill="white"/>
</svg>
