<svg width="34" height="35" viewBox="0 0 34 35" fill="none" xmlns="http://www.w3.org/2000/svg">
    <path d="M20.872 28.404h5.661V15.777L16.717 6.93l-9.254 8.832V28.4h5.662v-6.445c0-.487.401-.878.893-.878h5.96c.496 0 .894.395.894.878v6.449zm6.558 1.756H19.98a.885.885 0 0 1-.894-.878v-6.449h-4.174v6.45a.885.885 0 0 1-.893.877H6.566a.888.888 0 0 1-.893-.878V15.39c0-.236.098-.464.271-.63L16.08 5.088a.903.903 0 0 1 1.228-.015l10.73 9.671a.875.875 0 0 1 .29.65v13.892a.888.888 0 0 1-.897.874z" fill="#009DD6"/>
</svg>
