<svg width="24" height="27" viewBox="0 0 24 27" fill="none" xmlns="http://www.w3.org/2000/svg">
<path d="M15.8716 24.4042H21.5332V11.7773L11.7168 2.9299L2.46302 11.7618V24.4003H8.12467V17.9553C8.12467 17.4679 8.52598 17.0772 9.01778 17.0772H14.9785C15.4742 17.0772 15.8716 17.4717 15.8716 17.9553V24.4042ZM22.4303 26.1605H14.9785C14.4827 26.1605 14.0853 25.7659 14.0853 25.2823V18.8335H9.9109V25.2823C9.9109 25.7698 9.50959 26.1605 9.01778 26.1605H1.56597C1.07416 26.1605 0.672852 25.7659 0.672852 25.2823V11.3904C0.672852 11.1544 0.771212 10.9262 0.944327 10.7598L11.0794 1.08848C11.4178 0.763519 11.9568 0.755782 12.307 1.073L23.0362 10.7444C23.2211 10.9107 23.3273 11.1467 23.3273 11.3943V25.2862C23.3234 25.7698 22.926 26.1605 22.4303 26.1605Z" fill="white"/>
</svg>
