<svg width="34" height="35" viewBox="0 0 34 35" fill="none" xmlns="http://www.w3.org/2000/svg">
    <path d="M2.833 8.75c0-1.61 1.269-2.917 2.834-2.917h22.666c1.565 0 2.834 1.306 2.834 2.917v16.042c0 1.61-1.269 2.916-2.834 2.916h-6.496l-3.835 3.948c-.553.57-1.45.57-2.004 0l-3.835-3.948H5.667c-1.565 0-2.834-1.306-2.834-2.916V8.75zm25.5 0H5.667v16.042h7.083c.376 0 .736.153 1.002.427L17 28.562l3.248-3.343a1.396 1.396 0 0 1 1.002-.427h7.083V8.75zM8.5 13.854c0-.805.634-1.458 1.417-1.458h14.166c.783 0 1.417.653 1.417 1.458 0 .806-.634 1.458-1.417 1.458H9.917c-.783 0-1.417-.652-1.417-1.458zm0 5.833c0-.805.634-1.458 1.417-1.458h8.5c.782 0 1.416.653 1.416 1.458 0 .806-.634 1.459-1.416 1.459h-8.5c-.783 0-1.417-.653-1.417-1.459z" fill="#fff"/>
</svg>
