<svg width="30" height="28" viewBox="0 0 30 28" xmlns="http://www.w3.org/2000/svg">
<path d="M0.833374 3.74967C0.833374 2.13884 2.1019 0.833008 3.66671 0.833008H26.3334C27.8982 0.833008 29.1667 2.13884 29.1667 3.74967V19.7913C29.1667 21.4022 27.8982 22.708 26.3334 22.708H19.8368L16.0018 26.6559C15.4485 27.2254 14.5515 27.2254 13.9983 26.6559L10.1632 22.708H3.66671C2.1019 22.708 0.833374 21.4022 0.833374 19.7913V3.74967ZM26.3334 3.74967H3.66671V19.7913H10.75C11.1258 19.7913 11.4861 19.945 11.7518 20.2185L15 23.5623L18.2483 20.2185C18.514 19.945 18.8743 19.7913 19.25 19.7913H26.3334V3.74967ZM6.50004 8.85384C6.50004 8.04843 7.1343 7.39551 7.91671 7.39551H22.0834C22.8658 7.39551 23.5 8.04843 23.5 8.85384C23.5 9.65926 22.8658 10.3122 22.0834 10.3122H7.91671C7.1343 10.3122 6.50004 9.65926 6.50004 8.85384ZM6.50004 14.6872C6.50004 13.8818 7.1343 13.2288 7.91671 13.2288H16.4167C17.1991 13.2288 17.8334 13.8818 17.8334 14.6872C17.8334 15.4926 17.1991 16.1455 16.4167 16.1455H7.91671C7.1343 16.1455 6.50004 15.4926 6.50004 14.6872Z"/>
</svg>
