<svg width="29" height="29" viewBox="0 0 29 29" fill="none" xmlns="http://www.w3.org/2000/svg">
<path d="M14.3387 3.19703C14.3548 3.19703 14.3656 3.20263 14.371 3.21943L17.0018 8.78583C17.6354 10.1186 18.8542 11.0426 20.2663 11.261L26.1723 12.157C26.183 12.1682 26.1938 12.1962 26.1777 12.2242L21.9146 16.5586C20.8944 17.5946 20.4273 19.0954 20.6689 20.557L21.6783 26.6946C21.673 26.7058 21.6569 26.7226 21.63 26.7226C21.6246 26.7226 21.6193 26.7226 21.6139 26.7226L16.3468 23.833C15.7293 23.4914 15.0314 23.3122 14.328 23.3122C13.63 23.3122 12.932 23.4914 12.3092 23.833L7.03673 26.717C7.02599 26.717 6.99915 26.6946 6.99915 26.6666L8.00317 20.5514C8.24478 19.0842 7.77767 17.589 6.75754 16.553L2.48371 12.2018C2.48371 12.1906 2.48908 12.157 2.52129 12.1458L8.41123 11.2554C9.82331 11.0426 11.0421 10.1186 11.6757 8.78023L14.3173 3.19703C14.3119 3.20263 14.3226 3.19703 14.3387 3.19703ZM14.3387 0.957031C13.5602 0.957031 12.7817 1.38263 12.379 2.22823L9.74814 7.79463C9.43136 8.46663 8.81391 8.93143 8.09982 9.04343L2.20988 9.93383C0.416597 10.2082 -0.297497 12.5042 0.996462 13.8202L5.25955 18.1546C5.77498 18.681 6.01123 19.4314 5.88774 20.1706L4.88371 26.2858C4.6421 27.7586 5.76425 28.957 7.03673 28.957C7.37498 28.957 7.71861 28.873 8.05686 28.6882L13.324 25.7986C13.6408 25.625 13.9897 25.5354 14.3387 25.5354C14.6877 25.5354 15.0367 25.625 15.3535 25.7986L20.6206 28.6882C20.9535 28.873 21.3025 28.957 21.6408 28.957C22.9132 28.957 24.0354 27.7586 23.7938 26.2858L22.7897 20.1706C22.6663 19.4314 22.9025 18.6754 23.4179 18.1546L27.681 13.8202C28.9804 12.4986 28.2609 10.2026 26.4676 9.93383L20.5777 9.03783C19.8636 8.93143 19.2515 8.46103 18.9293 7.78903L16.2985 2.22263C15.8958 1.38263 15.1173 0.957031 14.3387 0.957031Z" fill="white"/>
</svg>
