<svg width="28" height="28" viewBox="0 0 28 28"  xmlns="http://www.w3.org/2000/svg">
    <path d="M11.667 4.667a4.667 4.667 0 1 0 0 9.333 4.667 4.667 0 0 0 0-9.333zm-7 4.666a7 7 0 1 1 14 0 7 7 0 0 1-14 0zm14.966-4.95a1.167 1.167 0 0 1 1.65 0 7 7 0 0 1 0 9.9 1.167 1.167 0 0 1-1.65-1.65 4.667 4.667 0 0 0 0-6.6 1.167 1.167 0 0 1 0-1.65zm.818 15.167a1.167 1.167 0 0 1 1.415-.849c1.55.388 2.53 1.378 3.094 2.506.546 1.092.707 2.31.707 3.293a1.167 1.167 0 0 1-2.334 0c0-.767-.13-1.59-.46-2.25-.31-.621-.789-1.089-1.573-1.285a1.167 1.167 0 0 1-.849-1.415zM7.583 21c-1.47 0-2.916 1.416-2.916 3.5a1.167 1.167 0 0 1-2.334 0c0-3.07 2.21-5.833 5.25-5.833h8.167c3.04 0 5.25 2.762 5.25 5.833a1.167 1.167 0 1 1-2.333 0c0-2.084-1.448-3.5-2.917-3.5H7.583z"/>
</svg>
